<?xml version="1.0" encoding="utf-8"?>
<!-- Generator: Adobe Illustrator 21.1.0, SVG Export Plug-In . SVG Version: 6.00 Build 0)  -->
<svg version="1.1" id="Calque_1" xmlns="http://www.w3.org/2000/svg" xmlns:xlink="http://www.w3.org/1999/xlink" x="0px" y="0px"
	 viewBox="0 0 1440 1024" style="enable-background:new 0 0 1440 1024;" xml:space="preserve">
<style type="text/css">
	.st0{clip-path:url(#SVGID_2_);}
	.st1{clip-path:url(#SVGID_4_);}
	.st2{clip-path:url(#SVGID_6_);}
	.st3{clip-path:url(#SVGID_8_);}
	.st4{fill:#F1D7C9;}
	.st5{fill:#F1D6CA;}
	.st6{fill:#CBE1F3;}
	.st7{fill:#F0D1E1;}
	.st8{fill:#D8D9EA;}
	.st9{fill:#DBD7E8;}
	.st10{fill:#D3DBED;}
	.st11{fill:#D1DDEF;}
	.st12{fill:#CEDEF1;}
	.st13{fill:#F1D4DB;}
	.st14{fill:#F1D4CE;}
	.st15{fill:#F1D2DE;}
	.st16{fill:#F0D3D7;}
	.st17{fill:#ECD1E1;}
	.st18{fill:#E7D4E4;}
	.st19{fill:#F1D3D1;}
	.st20{fill:#E0D5E6;}
	.st21{fill:#E4D4E5;}
	.st22{fill:#EAD2E2;}
	.st23{fill:#CDDFF1;}
	.st24{fill:#DFD5E6;}
	.st25{fill:#E2D5E6;}
	.st26{fill:#FEFEFE;}
	.st27{fill:#EAD3E3;}
	.st28{fill:#E3D4E5;}
	.st29{fill:#EFD8C4;}
	.st30{fill:#ECDABF;}
	.st31{fill:#EFD9C4;}
	.st32{fill:#C9E1F1;}
	.st33{fill:#C9E1F3;}
	.st34{fill:#C2DFCB;}
	.st35{fill:#F2D5CE;}
	.st36{fill:#F0D7C9;}
	.st37{fill:#EDD1E1;}
	.st38{fill:#F1D6CB;}
	.st39{fill:#F1D4D6;}
	.st40{fill:#F1D3E2;}
	.st41{fill:#C8E2E8;}
	.st42{fill:#E1D5E6;}
	.st43{fill:#C3E0D0;}
	.st44{fill:#C8E1EE;}
	.st45{fill:#F1D3E0;}
	.st46{fill:#DED5E7;}
	.st47{fill:#C5E1D9;}
	.st48{fill:#C6E2DD;}
	.st49{fill:#C4E0D5;}
	.st50{fill:#C7E2E3;}
	.st51{fill:#C6E2DF;}
	.st52{fill:#E5D4E5;}
	.st53{fill:#C6E1E1;}
	.st54{fill:#C5E1DA;}
	.st55{fill:#C8E2EE;}
	.st56{fill:#C3E0D1;}
	.st57{fill:#C3DFCD;}
	.st58{fill:#C7E2E2;}
	.st59{fill:#C6E2E1;}
	.st60{fill:#C4E0D4;}
</style>
<title>border1</title>
<g>
	<defs>
		<path id="SVGID_1_" d="M0-12h-12v1048h1464V-12L0-12L0-12z M0,12h1440l-12-12v1024l12-12H0l12,12V0L0,12z"/>
	</defs>
	<clipPath id="SVGID_2_">
		<use xlink:href="#SVGID_1_"  style="overflow:visible;"/>
	</clipPath>
	<g class="st0">
		<g>
			<defs>
				<rect id="SVGID_3_" width="1440" height="1024"/>
			</defs>
			<clipPath id="SVGID_4_">
				<use xlink:href="#SVGID_3_"  style="overflow:visible;"/>
			</clipPath>
			<g class="st1">
				<g>
					<defs>
						<rect id="SVGID_5_" width="1440" height="1024"/>
					</defs>
					<clipPath id="SVGID_6_">
						<use xlink:href="#SVGID_5_"  style="overflow:visible;"/>
					</clipPath>
					<g class="st2">
						<g>
							<defs>
								<rect id="SVGID_7_" x="-12" y="-12" width="1464" height="1048"/>
							</defs>
							<clipPath id="SVGID_8_">
								<use xlink:href="#SVGID_7_"  style="overflow:visible;"/>
							</clipPath>
							<g class="st3">
								<g>
									<path class="st4" d="M-10-11c20.6,0,41.3,0,61.9,0C63.6-0.6,76.3,8.6,88.6,18.3c47.9,37.6,95.9,75.1,143.9,112.6
										c50.7,39.7,101.5,79.4,152.2,119.1c47.3,37,94.6,74.1,142,111.1c38.9,30.4,77.7,61.2,117.2,90.9
										c20.8,15.6,41.5,31.2,61.9,47.2c2.1,1.6,5.9,2.6,4.5,6.7c-2.6,1.3-4.5-0.4-6.4-1.6c-27.5-16.3-55-32.5-82.5-48.8
										c-73.6-43.7-147.4-86.8-221.2-130.2c-79-46.5-158-93.1-237-139.7C112.8,155.7,62.3,126,11.9,96.2
										c-6-3.6-12.2-6.9-18.1-10.6c-2.1-1.3-4.5-2.4-4.3-5.6c0-28.5,0-57.1,0-85.6C-10.5-7.4-10.9-9.3-10-11z"/>
									<path class="st5" d="M710.3,505.5c-4.6-6-11.1-9.8-17-14.2c-36.3-27.6-72.8-54.9-108.7-83c-31.7-24.8-63.5-49.6-95.2-74.4
										c-33.7-26.3-67.4-52.7-101-79c-28.9-22.6-57.8-45.1-86.6-67.7c-36.3-28.4-72.4-57-108.7-85.4
										c-23.2-18.2-46.6-36.1-69.9-54.3c-23-17.9-45.9-36-68.9-53.9C52.7-7.6,51.8-9,51.9-11c53.3,0,106.6,0,159.8,0
										c1.8,1,3.2,2.3,4.4,4c1.4,2,3.1,3.9,4.9,5.7c21.7,21.1,42.4,43.2,63.6,64.9c24.4,24.8,48.6,49.8,72.8,74.7
										c23.8,24.5,47.6,48.9,71.4,73.3c24.3,25.1,48.8,50,73.1,75.1c24.1,24.8,48.5,49.4,72.4,74.4c43.3,45.4,88,89.5,132.1,134
										c0.8,0.8,1.7,1.6,2.5,2.4c2.7,3.1,5.8,6,8.8,8.9c0.5,0.5,1,1,1.5,1.5c0.8,1.1,1.9,2.2,1.1,3.8c-0.6,0.5-1.3,0.6-2,0.5
										c-1-0.2-1.8-0.5-2.7-1C714,509.2,709.9,509.4,710.3,505.5z"/>
									<path class="st6" d="M1397.7-11c18.3,0,36.6,0,54.9,0c1.3,1.6,1,3.5,1,5.3c0,17.6,0.1,35.2,0,52.8c0,1.7-1,2.6-2.4,3.5
										c-35.1,22-69.9,44.5-104.9,66.7c-35.1,22.3-70.2,44.6-105.3,67c-43.4,27.6-86.7,55.2-130.1,82.9
										c-37.6,24-75.3,47.8-112.9,71.8c-37.7,24.1-75.5,47.9-113.2,72c-22.1,14.2-44.2,28.3-66.4,42.3c-1.5,1-3.1,1.9-4.4,3.3
										c-15.4,10.4-31.3,20-47,29.8c-9.2,5.8-18.3,11.8-27.7,17.4c-2.4,1.5-4.6,4.1-8,3c-1.2-2.5,0.8-3.8,2.3-4.8
										c7.2-5.3,13.9-11.1,21.1-16.4c10.2-6.4,19.4-14,28.9-21.2c29.7-22.6,59.4-45.1,88.9-67.8c41.7-32.1,83-64.6,124.6-96.8
										c35.8-27.7,71.5-55.6,107.3-83.3c54.3-42.2,108.6-84.4,162.9-126.5c42.2-32.8,84.4-65.5,126.6-98.4
										C1395.1-9.4,1396.4-10.1,1397.7-11z"/>
									<path class="st7" d="M720.3,511.5c-0.7-1-1.3-2-2-3c-0.9-1.5-1.4-3.3-2.2-4.9c-6.8-17-13.6-33.9-20.5-50.8
										c-11.3-27.7-22.3-55.6-33.6-83.3c-10.8-26.7-21.5-53.4-32.1-80.1c-25.7-64.6-51.4-129.2-76.9-193.9
										C540,62.6,526.9,29.9,514.1-3c-1-2.5-2.8-5.1-0.6-8c40.3,0,80.6,0,120.9,0c1.9,1.7,2.3,3.9,2.7,6.3
										c9.1,56.5,18.4,113,27.6,169.5c11.2,68.5,22.1,137,33.6,205.4c5.8,34.5,12.5,68.7,18.1,103.2c1.4,8.7,3.3,17.3,5.1,25.9
										c-0.3,4,2.6,7.9,0.4,11.9C721.4,511.7,720.9,511.8,720.3,511.5z"/>
									<path class="st8" d="M1026-11c32.3,0,64.6,0,96.9,0c1.7,2.6-0.3,4.4-1.6,6.2c-24.3,31.7-48.7,63.3-73.1,95
										c-26.2,34-52.4,68-78.7,102c-39.4,51.1-78.9,102.3-118.3,153.5c-26,33.9-52,67.9-77.9,102c-13.3,17.5-26.4,35.1-39.6,52.7
										c-1.5,2-3.5,3.6-4.7,5.8c-1.1,1-2.2,2.2-3.9,1.4c-1.3-2.2,0.4-3.8,1.3-5.5c11.7-22.2,24.6-43.8,37.2-65.5
										c31.8-54.7,63.4-109.5,95.4-164c41.1-70.1,82.2-140.2,123.2-210.3c12.9-22,25.8-43.9,38.6-65.9
										C1022.3-6.4,1023.5-9.1,1026-11z"/>
									<path class="st9" d="M1026-11c-4.4,10.7-11,20.1-16.7,30c-14.5,25.2-29.2,50.2-43.9,75.3c-10.4,17.8-20.9,35.4-31.3,53.2
										c-14.5,24.8-28.9,49.6-43.4,74.4c-11.8,20.2-23.7,40.3-35.5,60.6c-14.8,25.4-29.5,50.8-44.3,76.2
										c-12.5,21.5-25.1,43-37.5,64.6c-13.5,23.3-26.8,46.6-40.2,69.9c-2.7,4.7-5.2,9.6-7.7,14.4c0.6,1.1,0.2,1.9-0.5,2.7
										c-0.7,0.5-1.3,0.7-2,0c-1-2.1,0-3.9,0.5-5.9c1.9-2.9,2.9-6.3,4.3-9.4c3.8-7.2,6.7-14.8,9.7-22.3
										c11.2-28.1,23.2-55.9,34.8-83.9c14.8-35.8,29.3-71.8,44.2-107.6c34-82.1,66.9-164.6,99.9-247.1
										c5.4-13.4,10.9-26.8,16.3-40.3c0.7-1.7,1.3-3.4,2.7-4.7C965.4-11,995.7-11,1026-11z"/>
									<path class="st10" d="M728.3,505.5c3.5-5,6.9-10,10.6-14.9c14.9-19.7,29.8-39.4,44.8-59c23.6-31,47.3-61.9,71-92.8
										c19.7-25.7,39.4-51.3,59.1-76.9c22.3-29,44.7-58,67-87.1c21.2-27.6,42.5-55.1,63.8-82.7c25.4-32.9,50.9-65.8,76.4-98.7
										c1-1.3,1.8-2.8,2-4.5c27,0,53.9,0,80.9,0c1.8,2.6-0.3,4.4-1.5,6.2c-3.9,5.8-9.2,10.5-14,15.6
										c-12.6,13.7-25.2,27.5-37.7,41.2c-15.9,17.4-31.9,34.8-47.8,52.3c-12.5,13.8-25.2,27.4-37.8,41.2
										c-12.7,13.9-25.4,27.7-38,41.6c-8.3,9.1-16.7,18.1-24.9,27.2c-13.6,15-27.5,29.9-41.2,44.8c-5.7,6.3-11.3,12.6-17.3,18.7
										c-18.4,18.7-35.6,38.6-53.9,57.6c-9.8,10.2-19.3,20.7-28.8,31.1c-17.2,18.7-34.8,37.1-52.1,55.8
										c-9.9,10.8-19.8,21.6-30,32.1c-12.3,12.6-24.1,25.7-35.9,38.8c-2.8,3.1-5.8,6-8.9,8.7C732,503,731.3,506.2,728.3,505.5z"/>
									<path class="st11" d="M733.3,501.5c8-8.9,15.9-17.8,24.1-26.5c16.7-17.8,33.6-35.4,50.2-53.3c10.2-11,20.5-21.8,30.7-32.7
										c16.9-18.1,33.3-36.6,50.5-54.4c9.3-9.7,18.4-19.6,27.5-29.5c18.1-19.4,36.2-38.8,54.3-58.3c10.7-11.6,21.3-23.3,31.9-34.9
										c18.4-20.1,36.8-40.1,55.2-60.2c10.6-11.6,21.3-23.3,31.9-34.9c18.3-19.9,36.6-39.9,54.8-59.8
										c14.1-15.4,28.2-30.8,42.3-46.3c5-5.5,9.9-11.2,14.8-16.8c1.2-1.4,2.1-3,2.4-4.9c28.3,0,56.6,0,84.9,0
										c1,2.2-0.6,3.4-1.9,4.7c-7.6,7.7-15.7,14.9-23.7,22.2c-10.8,9.9-21.5,19.9-32.3,29.7c-16,14.6-31.8,29.2-47.7,43.9
										c-10.3,9.5-20.5,19-30.8,28.5c-15.6,14.4-31.3,28.9-46.9,43.3c-9.8,9-19.6,18-29.4,27c-15.9,14.7-31.7,29.4-47.7,44
										c-9.9,9.1-19.8,18.3-29.7,27.4c-15.7,14.6-31.5,29.1-47.3,43.6c-9.8,9-19.5,18-29.3,27.1c-16.2,15-32.5,29.9-48.7,45
										c-14.5,13.5-29.1,26.9-43.6,40.3c-14.9,13.7-29.8,27.5-44.8,41.2c-10.4,9.5-20.9,19-31.1,28.8c-5.7,5.4-12,10-17.6,15.4
										C735.5,501.7,734.5,502.6,733.3,501.5z"/>
									<path class="st12" d="M733.3,501.5c1.5,0,2.4-1,3.4-1.9c11.1-10.5,22.2-21,33.4-31.4c18.2-16.7,36.6-33.2,54.8-49.9
										c9.4-8.6,18.8-17.4,28.1-26.1c19.4-18.1,38.8-36.2,58.3-54.3c12.3-11.4,24.6-22.7,37-34c18.7-17.1,37.5-34.2,56.2-51.3
										c9.3-8.5,18.5-17.1,27.8-25.7c19.6-18.2,39.1-36.5,58.7-54.6c12.6-11.7,25.4-23.4,38.1-35.1c17.6-16.2,35.1-32.4,52.7-48.6
										c12.6-11.6,25.1-23.1,37.7-34.7c17.3-16,34.5-32.1,52-47.9c6-5.4,12.1-10.7,17.4-17c25.6,0,51.3,0,76.9,0
										c0.6,3.4-2.1,4.6-4.1,6.2c-19.5,15.9-39.1,31.6-58.6,47.5c-66.1,53.8-132.3,107.4-198.5,161.2
										c-50.4,40.9-100.8,81.8-151.3,122.7c-48,38.9-95.8,77.9-143.8,116.8c-17.9,14.6-35.9,29.1-54.2,43.1
										c-6.1,5.9-13.2,10.6-19.9,15.9c-1.6,1.2-3.1,2.4-4.1,4.1c-1.7,2.4-3.3,5.1-7,3c0.3-0.7,0.7-1.3,1-2c1-0.7,2-1.3,3-2
										C730,504.2,731.6,502.8,733.3,501.5z"/>
									<path class="st13" d="M717.3,503.5c1.5,1.4,0.8,3.3,1,5c-0.3-0.3-0.7-0.7-1-1c-3.4-5-8.6-8.7-10.4-14.8
										c-0.3-4.3-3.6-7.1-5.6-10.4c-50.7-81-100.6-162.4-151.2-243.5C501.6,161.2,453.4,83.4,405,5.6c-2.2-3.5-4.5-7-6.5-10.6
										c-1-1.8-2.6-3.7-0.9-6c20,0,40,0,59.9,0c1.4,1.3,2.2,2.9,3,4.5c9.7,19.5,19.4,39,29.3,58.5
										c30.4,60.1,60.6,120.4,90.9,180.6c17.8,35.2,35.7,70.3,53.7,105.4c22.9,44.6,46,89,68.3,133.8
										C707.9,482.3,712.4,493,717.3,503.5z"/>
									<path class="st14" d="M708.3,498.5c-1.5-1.3-3-2.6-4.4-4c-26.7-26.7-53.7-53.2-80.1-80.2c-15-15.3-30.3-30.3-44.9-46
										c-11.4-12.3-23.9-23.6-35.2-36.1c-11.8-13.1-25.1-24.8-36.9-37.9c-11.1-12.4-23.7-23.4-34.8-35.7
										c-12.3-13.6-26-25.7-38.3-39.3c-10.8-12-22.9-22.7-33.7-34.7c-12.3-13.6-26-25.8-38.2-39.3c-10.5-11.6-22.2-22-32.7-33.6
										c-12.7-13.9-26.6-26.6-39.3-40.4c-9.7-10.6-20.2-20.2-29.9-30.7C246.5,26,232.2,12,218.2-2.2c-2.6-2.6-4.8-5.5-6.4-8.8
										c18.3,0,36.6,0,54.9,0c10.4,10.8,19.9,22.4,29.8,33.6c15.2,17.2,30.2,34.6,45.3,51.9c17,19.6,34.2,39,51.2,58.7
										c14.7,17,29.5,33.9,44.3,50.7c14.8,16.9,29.5,33.9,44.3,50.7c15.4,17.5,30.7,35,46,52.6c21.6,24.9,43.2,49.7,64.9,74.5
										c22.4,25.5,44.2,51.5,66.6,77.1c10.2,11.6,20.2,23.4,30.3,35.1c0.9,1,1.8,1.9,2.8,2.8c4.8,5.6,9.7,11.1,14.4,16.8
										C707.7,494.8,710,496.1,708.3,498.5z"/>
									<path class="st15" d="M717.3,503.5c-3.3-4.6-5.4-9.8-7.9-14.9c-11.2-22.5-22.4-45-33.7-67.4c-12.7-25.1-25.4-50.2-38.6-75
										c-8.7-16.3-16.6-33-25.1-49.4c-32.6-62.6-63.6-126-95.6-188.9c-19.1-37.5-37.7-75.3-56.8-112.8c-1-1.9-2.2-3.8-2-6.1
										c18.6,0,37.3,0,55.9,0c2.3,10.3,7,19.7,10.8,29.4c20,50.7,40.1,101.3,60.2,152c13.9,35,27.9,70.1,41.8,105.1
										c11.4,28.6,22.6,57.1,34.1,85.6c14,34.7,28.2,69.2,42.1,103.9c4.8,12,9.3,24.2,14.5,36.1
										C717.3,501.8,717.2,502.7,717.3,503.5z"/>
									<path class="st16" d="M397.6-11c2.2,7.3,7.1,13.1,11,19.4c27.6,44.6,55.3,89.1,83,133.7c18.9,30.4,38,60.8,56.9,91.3
										c29.1,46.8,58,93.7,87,140.6c19.5,31.4,39.3,62.7,58.7,94.2c4.3,6.9,8.3,13.9,12.9,20.6c0.8,1.2,1.2,2.3,1.1,3.7
										c-3.1,0.7-4-1.9-5.2-3.7c-24.5-34.8-49.7-69.2-74.4-103.9c-27.5-38.5-54.9-76.9-82.3-115.4
										c-32.1-45.1-64.4-90.2-96.6-135.3c-32.8-45.9-66-91.5-98.7-137.4c-1.6-2.3-4.6-4.4-2.3-7.9C365-11,381.3-11,397.6-11z"/>
									<path class="st17" d="M720.3,499.5c-3.1-11-5-22.2-7-33.4c-3.1-17.8-6.4-35.5-9.4-53.3c-4.3-24.6-8.5-49.3-12.6-73.9
										c-3.8-22.9-7.5-45.7-11.3-68.6c-3.6-21.9-7.1-43.8-10.7-65.7c-4.1-25.2-8.3-50.3-12.4-75.5c-3.5-21.7-7-43.4-10.6-65.2
										c-3.5-21.4-7-42.8-10.5-64.2c-0.6-3.6-1-7.2-1.5-10.8c14.3,0,28.6,0,43,0c3.1,4.4,2.4,9.6,2.8,14.4
										c1.9,21.8,3.8,43.7,5.8,65.5c1.5,17.2,2.9,34.4,4.4,51.6c1.8,20.7,3.7,41.4,5.5,62.1c1.2,13.7,2.2,27.5,3.4,41.2
										c1.5,17.5,3,35.1,4.5,52.6c1.2,13.6,2.3,27.2,3.4,40.7c1.5,18.4,3.1,36.7,4.6,55.1c1.5,17.9,3.1,35.7,4.5,53.6
										c1,13.3,2.4,26.5,3.2,39.7c0.5,8.9,1.1,17.8,2.2,26.7C721.9,494.8,722.5,497.5,720.3,499.5z"/>
									<path class="st18" d="M737.3-11c14.3,0,28.6,0,43,0c2,3.1,1,6.5,0.6,9.7c-4,35.4-7.8,70.8-11.8,106.1
										c-3.9,34.5-7.7,69.1-11.6,103.7c-3.5,31.6-6.8,63.2-10.4,94.7c-3.5,31.4-7,62.8-10.5,94.2c-2.6,23.1-5.3,46.3-7.9,69.4
										c-1.1,9.5-2.9,19-2.9,28.6c0,0.9,0,1.8-0.1,2.7c0,0.6-0.1,1.2-0.3,1.8c-1.1,1.1-0.4,4.7-3.8,2.9c-0.3-6.5-0.6-13-0.6-19.6
										c0.8-2.6,0.8-5.2,0.9-7.9c0.3-9.3-0.7-18.6,0.8-27.9c0.8-4.7-0.5-9.6-0.3-14.4c1.3-22.9,0.3-45.9,1-68.8
										c0.7-20.8,1.2-41.5,2.1-62.3c0.6-14.5-0.1-29,0.9-43.4c1-14.3,0.2-28.6,0.9-42.9c0.9-18.6,1.4-37.2,2.1-55.8
										c0.7-17.9,1.3-35.9,2-53.8c0.7-18.8,1.3-37.5,2-56.3c0.7-17.9,1.8-35.8,1.8-53.8C735.3-6.5,735.3-9,737.3-11z"/>
									<path class="st19" d="M691.3,477.5c-5.9-6.5-11.9-12.9-17.7-19.5c-7.7-8.7-15.2-17.6-22.7-26.4
										c-9.3-10.8-18.5-21.7-27.8-32.5c-7.4-8.5-14.8-17-22.2-25.5c-10.3-11.9-20.6-23.8-30.9-35.7c-7.4-8.5-14.9-17-22.3-25.5
										c-10.7-12.3-21.3-24.6-31.9-36.8c-7.6-8.7-15.4-17.4-23-26.1c-13-14.9-25.9-29.8-38.8-44.7c-7.7-8.9-15.6-17.6-23.3-26.5
										c-10.9-12.5-21.7-25-32.7-37.5c-10-11.5-20.2-22.9-30.2-34.4c-10.6-12.1-21.1-24.3-31.6-36.4c-9.9-11.4-19.9-22.7-29.9-34
										c-10.7-12.2-21.4-24.5-32-36.8c-2.7-3.2-6.9-5.4-7.6-10.2c14.7,0,29.3,0,44,0c5.7,4.7,9.6,11,14.1,16.7
										c45.6,58.3,91.3,116.6,136.9,174.9c37.6,48.1,75.3,96.2,112.9,144.2c34.2,43.8,68.5,87.5,102.7,131.3
										c4.2,5.4,8.8,10.5,12.7,16.1C691,473.8,692.9,475.3,691.3,477.5z"/>
									<path class="st20" d="M724.3,499.5c0-0.3,0-0.7,0-1c1.3-1.4,0.8-3.4,1.3-5c6.4-23.7,12.4-47.5,18.7-71.3
										c12.7-47.9,25.8-95.8,38.6-143.7c14.8-55.5,29.8-110.9,44.7-166.3c10.4-38.7,20.7-77.5,31.1-116.2c0.7-2.6,1.1-5.2,3.4-7.1
										c13.3,0,26.6,0,40,0c1.9,2.8,0.4,5.5-0.5,8.1c-7.9,23.5-16.1,46.9-24.2,70.4c-7.3,21.1-14.7,42.1-21.9,63.2
										c-21,61.2-42.3,122.4-63.3,183.6c-16,46.6-32.2,93.1-48.5,139.6c-4.9,13.9-9.5,28-15.4,41.5c-0.5,3.4-1.4,6.6-4,9
										C723.5,502.8,723.6,501.2,724.3,499.5z"/>
									<path class="st19" d="M691.3,477.5c-2.7-6-7.3-10.6-11.3-15.6c-11.7-15.1-23.7-29.9-35.4-44.9
										c-19.1-24.2-38.1-48.5-57.1-72.8c-13.3-17-26.5-34-39.8-51c-16.7-21.3-33.4-42.5-50-63.8c-15.7-20.1-31.4-40.3-47.1-60.4
										c-16.5-21.2-33.2-42.2-49.7-63.4c-13-16.6-25.9-33.2-38.8-49.8C345.5,34.6,328.9,13.3,312.2-8c-0.7-0.9-1.5-1.8-1.5-3.1
										c12.7,0,25.3,0,38,0c-0.2,1.8,0.7,3.2,1.7,4.5c16.5,23.1,33,46.2,49.6,69.2c16.5,22.9,33.1,45.7,49.5,68.6
										c22.7,31.7,45.4,63.4,68.1,95.1c16.2,22.7,32.2,45.5,48.4,68.2c17.8,25,35.8,49.9,53.6,74.9c15.2,21.3,30.5,42.7,45.7,64
										c13.4,18.8,26.8,37.6,40.2,56.3c0.8,1,1.9,1.8,2.8,2.7c1.7,5.8,7.2,9.3,9,15c-3.4-2.6-6.4-5.6-9-9
										c-1.8-4.8-6.2-7.6-9.2-11.4C696.6,483.8,693.8,480.9,691.3,477.5z"/>
									<path class="st21" d="M724.3,496.5c-0.1-13,2.4-25.7,3.7-38.5c1.3-13,2.8-26,4.3-39c1.5-13.6,3.1-27.3,4.6-40.9
										c1.2-10.4,2.2-20.7,3.4-31.1c1.5-13.6,3.1-27.3,4.7-40.9c1.1-10.2,2.2-20.4,3.3-30.6c1.2-10.8,2.5-21.7,3.7-32.5
										c1.1-10.4,2.1-20.7,3.3-31.1c1.5-14,3.2-27.9,4.7-41.9c1.1-10.2,2.1-20.4,3.3-30.6c1.5-13.6,3.1-27.3,4.6-40.9
										c1.2-10.4,2.2-20.7,3.4-31.1c1.5-13.6,3.1-27.3,4.6-40.9c1.1-10.2,2.3-20.4,3.3-30.6c0.2-2.3,0.5-4.6,1.1-6.9
										c13,0,26,0,39,0c1.4,2.6,0.7,5.2,0.2,7.8c-6.1,33.4-12.4,66.7-18.6,100.1c-16.7,89.8-33.6,179.6-50.2,269.4
										c-3.4,18.5-7,36.9-10.6,55.3c-4.1,20.8-7.2,41.8-11.7,62.5c-0.2,2.5-1.2,4.8-1.6,7.2C725.6,492.9,727.2,495.8,724.3,496.5z
										"/>
									<path class="st22" d="M722.3,483.5c0,6.7,0,13.3,0,20c2,2.2,0,4.7,0.6,6.9c0.2,0.5,0.2,1,0,1.5c-0.2,0.5-0.6,0.8-1.2,0.8
										c-0.6-0.3-0.7-0.7-0.4-1.2c-0.3-4-0.7-8-1-12c-0.6-15.6-2.3-31-3.8-46.5c-0.9-8.9-1.4-17.8-2.2-26.7
										c-1.2-14.7-2.6-29.3-3.8-44c-0.8-9.6-1.4-19.2-2.2-28.7c-1.2-14.3-2.6-28.7-3.8-43c-0.8-9.1-1.4-18.2-2.2-27.2
										c-1.3-14.7-2.6-29.3-3.8-44c-0.8-9.4-1.3-18.8-2.2-28.2c-1.2-13.8-2.6-27.7-3.8-41.5c-0.8-9.1-1.4-18.2-2.2-27.2
										c-1.2-13.8-2.5-27.7-3.8-41.5c-0.8-8.7-1.4-17.5-2.2-26.2c-1.2-14-2.6-28-3.8-42c-0.8-9.2-1.6-18.5-2.1-27.7
										c-0.3-5.3-1.7-10.5-1.1-15.9c12.7,0,25.3,0,38,0c2,2,2,4.5,2,7c-0.7,39.8,0.9,79.5,1.2,119.3c0.2,29.4-0.1,58.9,1,88.3
										c0.9,24.5-0.3,48.9,0.9,73.4c1.3,25.8-0.2,51.6,1,77.3c1.3,25.6,0.1,51.3,0.9,76.9C722.9,448.6,721.8,466.1,722.3,483.5z"
										/>
									<path class="st23" d="M755.3,486.5c6.2-6.7,13.8-11.9,20.7-17.7c15.5-13,31.3-25.7,46.9-38.4
										c14.5-11.8,29.1-23.6,43.6-35.4c15.3-12.4,30.6-24.8,46-37.2c18.7-15.1,37.4-30.2,56-45.4c17.1-13.9,34.1-28,51.2-41.9
										c16.2-13.2,32.5-26.3,48.7-39.4c15.2-12.3,30.4-24.6,45.6-36.9c15.2-12.3,30.5-24.5,45.7-36.8
										c16.5-13.4,32.9-26.8,49.4-40.2c18.8-15.2,37.7-30.4,56.4-45.7c17.1-13.9,34.1-28,51.2-41.9c14.7-11.9,29.4-23.8,44.1-35.6
										c1.8-1.5,3.6-2.9,4.9-4.9c10.7,0,21.3,0,32,0c-3.8,6.4-10.4,9.5-16,13.9c-25,19.7-50.1,39.2-75.2,58.8
										c-18.5,14.3-37.1,28.5-55.5,42.8c-23.2,18-46.2,36.2-69.4,54.1c-29.2,22.7-58.5,45.2-87.7,67.9
										c-31.3,24.3-62.6,48.6-93.9,72.9c-33,25.6-66,51.2-98.9,76.9c-31.1,24.3-62.4,48.3-94,72c-15.8,11.8-31.4,23.9-47.2,35.8
										C758.6,485.1,757.3,486.4,755.3,486.5z"/>
									<path class="st24" d="M728.3,495.5c3.7-11.7,7.2-23.5,11.2-35.1c6.4-18.9,13.3-37.6,19.8-56.5c16-46.3,32-92.7,48-139.1
										c8.9-25.8,17.9-51.5,26.8-77.3c13.4-38.8,26.8-77.6,40.1-116.5c9.4-27.3,19.7-54.4,27.9-82.1c11,0,22,0,33,0
										c-0.5,6.8-4.1,12.6-6.5,18.7c-18.8,47.2-37.7,94.4-56.7,141.6c-16.6,41.1-33.3,82.2-50.1,123.3
										c-15.3,37.4-30.6,74.7-46,112c-12.2,29.6-24.6,59.2-36.9,88.8c-2.8,6.6-6.3,12.8-8.1,19.8
										C730.4,494.3,729.3,495,728.3,495.5z"/>
									<path class="st25" d="M726.3,491.5c-0.3-2.4,0.4-4.7,1-7c4.5-18.5,7.6-37.2,11.4-55.8c14.4-70.2,30.8-140,46.1-210
										c15.4-70.1,30.9-140.1,45.5-210.3c0.9-4.6,2.1-9.1,2.9-13.7c0.4-2.2,1.1-4.2,2.9-5.7c8.7,0,17.3,0,26,0
										c-4.4,17-8.7,34.1-13.2,51c-6.3,23.7-12.6,47.5-19,71.2c-11.4,42.1-22.8,84.2-34.1,126.4c-15.7,58.3-31.3,116.6-47,175
										c-7.2,26.8-14.4,53.5-21.6,80.3c-0.2,0.6-0.6,1.1-0.9,1.7C725.6,493.5,725.6,492.5,726.3,491.5z"/>
									<path class="st26" d="M1452.5,48.9c0-20,0-40,0.1-59.9c0.6,0.4,2.1-1,2,1c-0.1,1.2,0,2.3,0,3.5c0,346.7,0,693.3,0.1,1040
										c0,3.7-0.8,4.6-4.6,4.6c-485.5-0.1-971.1-0.1-1456.6,0c-3.7,0-4.6-0.8-4.6-4.6C-11,686.8-11,340.2-10.9-6.5
										c0-1.5-1.2-3.4,0.9-4.5c0,31,0.1,61.9,0.1,92.9c1.7,1.9,1.9,4.2,1.9,6.5c0,54.1,0,108.2,0,162.3c0,1-0.1,2-0.3,3
										c0.4,4.8,0.3,9.6,0.3,14.4c0,61.5,0,122.9,0,184.4c0,2.7,0.1,5.3-0.3,8c0.3,2.3,0.3,4.6,0.3,7c0,62.3,0,124.6,0,186.9
										c0,2.3,0,4.7-0.3,7c0.3,2.3,0.3,4.6,0.3,6.9c0,31.7,0,63.3,0,95c0,2.3,0,4.6-0.3,6.9c0.7,10.1,0.3,20.2,0.3,30.3
										c0,17.9,0.3,35.8-0.2,53.7c0.5,15.6,0.1,31.3,0.2,46.9c0.1,17.3,0,34.6,0,51.9c0,4,0,8-0.4,11.9
										c0.8,11.6,0.2,23.3,0.4,34.9c0.1,9.3,0,18.6,0,27.9c0,5.9,0.4,6.3,6.2,6.3c16,0.1,31.9-0.2,47.9,0.1
										c14.3-0.2,28.6-0.1,42.9-0.1c18.8,0,37.6,0,56.4,0c2.2,0,4.3-0.2,6.5,0.3c41.9-0.7,83.9-0.3,125.8-0.3
										c15.9-0.1,31.8-0.1,47.6-0.1c7.8,0,15.6-0.3,23.3,0.2c33-0.5,65.9-0.1,98.9-0.2c2,0,4,0,5.9,0.3c2.5-0.3,5-0.4,7.5-0.3
										c35.1,0,70.3,0,105.4,0c2.3,0,4.7,0,7,0.3c22.7-0.5,45.3-0.6,68,0c21.6-0.5,43.2-0.6,64.8,0c10.4-0.5,20.7-0.6,31.1,0
										c11.4-0.5,22.7-0.5,34.1,0c13.8-0.7,27.6-0.3,41.4-0.3c14.1,0,28.3-0.5,42.4,0.3c20.3-0.5,40.7-0.6,61,0
										c10.9-0.7,21.8-0.3,32.7-0.3c12.1,0,24.2-0.5,36.2,0.3c3.5-0.5,7-0.3,10.5-0.3c26,0,51.9,0,77.9,0c2.5,0,5,0,7.5,0.4
										c8.3-0.7,16.6-0.3,24.8-0.3c18.4,0,36.8-0.3,55.1,0.2c14.3-0.5,28.5-0.2,42.8-0.2c21.4,0.1,42.8-0.5,64.1,0.3
										c2.5-0.5,5-0.3,7.5-0.3c55.2,0,110.5,0,165.7,0c1.8,0,3.7,0,5.5,0c2.6,0,4-1.3,4.1-3.9c0.1-2.2,0.1-4.3,0.1-6.5
										c0-111.2,0-222.3,0-333.5c0-2.5-0.2-5,0.3-7.5c-0.4-11.6-0.6-23.3,0-34.9c-0.4-5.7-0.6-11.4,0-17.1
										c-0.5-6.3-0.6-12.5,0-18.8c-0.3-3.4-0.5-6.7-0.1-10.1c0.3-2.4-0.4-4.9,0.2-7.3c-0.5-3.7-0.5-7.3,0-11
										c-0.5-5.9-0.6-11.7,0-17.6c-0.3-3.3-0.5-6.7,0-10c-0.2-1.5-0.1-3,0-4.5c-0.5-4.6-0.5-9.2,0-13.8c-0.6-4.1-0.4-8.2,0-12.2
										c-0.5-20.2-0.6-40.4,0-60.6c-0.5-18.9-0.6-37.9,0-56.8c-0.5-9.6-0.6-19.2,0-28.8c-0.3-2.2-0.3-4.5,0-6.7
										c-0.6-12.2-0.6-24.4,0-36.6c-0.6-10.3-0.6-20.6,0-30.9c-0.5-7-0.6-14,0-21c-0.5-7-0.5-13.9,0.1-20.9
										c-0.8-3.8-0.1-7.6-0.2-11.3c-0.3-7.7-0.5-15.3,0.1-23c-0.5-21.2-0.6-42.5,0-63.7c-0.6-17.6-0.6-35.3,0-52.9
										c-0.6-16.2-0.5-32.5-0.1-48.8c0-1,0.2-2,0-3C1450.7,56.4,1449.7,52.4,1452.5,48.9z"/>
									<path class="st27" d="M722.3,483.5c-1.3-1.2-1-2.8-1-4.2c0.7-27.3-1.6-54.5-1-81.8c0.2-9.5,0.5-19-0.1-28.5
										c-1.6-26.8,0.2-53.6-1.1-80.3c-1.2-24.3,0.3-48.6-0.9-72.8c-1.4-25.9,0.3-51.9-1-77.8c-1.3-25.1,0.4-50.3-1-75.3
										c-1.3-24.6-0.3-49.2-0.8-73.8c7.3,0,14.7,0,22,0c0.7,17.8-0.8,35.5-1.2,53.3c-0.4,18.2-1.3,36.5-1.9,54.7
										c-0.6,18.4-1.3,36.8-2,55.2c-0.7,18.2-1.1,36.5-2.1,54.7c-0.7,13.8,0.3,27.6-0.9,41.3c-1.3,15-0.2,29.9-0.9,44.8
										c-1.1,20.9-1.1,41.8-2.2,62.7c-1,20.1,0.1,40.2-0.8,60.3c-1,21.2-2,42.4-2,63.7C723.2,481,722.6,482.3,722.3,483.5z"/>
									<path class="st28" d="M836.2-11c-5,24.2-9.9,48.4-15.1,72.5c-11.5,53-23.1,105.9-34.8,158.8c-9.6,43.7-19.4,87.4-29,131.1
										c-9.4,42.9-18.8,85.8-28.1,128.7c-0.3,1.6-0.6,3.3-1.9,4.5c2.5-14,5-28,7.5-42c5.5-30.3,11-60.6,16.5-90.9
										c3.3-17.9,6.7-35.8,10.1-53.7c6-31.9,11.9-63.8,17.8-95.7c5.2-27.8,10.6-55.6,15.8-83.4c6.8-36.6,13.5-73.3,20.2-109.9
										c1.2-6.7,2.6-13.3,3.9-19.9C824.9-11,830.5-11,836.2-11z"/>
									<path class="st29" d="M-9.9,253.8c0-57.3,0-114.6,0-171.8C0,87.7,9.9,93.3,19.8,99.1c27.5,16.1,55,32.2,82.5,48.4
										c18.6,10.9,37.1,22,55.7,33c27.7,16.4,55.5,32.7,83.3,49c24,14.2,48,28.4,72,42.6c25.9,15.3,51.8,30.5,77.7,45.8
										c25.7,15.2,51.4,30.4,77.2,45.6c29.2,17.2,58.5,34.2,87.7,51.4c30,17.7,60,35.6,89.9,53.4c20.4,12.1,40.9,24.2,61.3,36.2
										c1,0.6,2.2,0.8,3.3,1.2c1.2,2.7,4.8,2.3,6,5c-2.3,2.4-4.7,0.8-7,0.1c-18.9-6.4-37.8-12.9-56.7-19.4
										c-26.1-9-52.2-18.1-78.3-27.3c-41.3-14.6-82.5-29.4-123.7-44.1c-35.6-12.7-71.2-25.3-106.8-38
										c-45.6-16.3-91.3-32.5-136.9-48.8c-35.6-12.7-71.2-25.4-106.8-38.1c-34.4-12.2-68.6-24.6-103-36.7
										C-5.4,257.1-8.2,256.3-9.9,253.8z"/>
									<path class="st30" d="M-9.9,253.8c20.4,7.2,40.7,14.4,61.1,21.6c16.9,6,33.8,12.1,50.7,18.2c45.5,16.3,91,32.6,136.5,48.8
										c21.9,7.8,43.9,15.5,65.8,23.3c40.7,14.5,81.3,29.1,122,43.6c25.5,9.1,51,18.1,76.5,27.2c48.5,17.3,97,34.7,145.8,51.2
										c20.7,7,41.4,14.4,62,21.7c1.9,0.7,3.8,1.3,5.8,1.1c0.7,0.3,1.3,0.7,2,1c-0.5,2.9-2.8,2.4-4.7,2.3c-25-1.1-50-2.5-75.1-4.1
										c-20.9-1.4-41.8-2.8-62.6-4.3c-20.5-1.5-41.1-3-61.6-4.6c-15.7-1.2-31.5-2.2-47.2-3.3c-16.1-1.2-32.1-2.3-48.2-3.6
										c-10.3-0.9-20.5-1.5-30.8-2.2c-17.1-1.2-34.1-2.5-51.2-3.8c-14.9-1.1-29.8-2.1-44.7-3.2c-17.1-1.3-34.1-2.4-51.2-3.8
										c-14.7-1.2-29.5-2.1-44.2-3.2c-16.9-1.3-33.8-2.5-50.7-3.7c-15.4-1.1-30.8-2.2-46.2-3.3c-16.4-1.1-32.8-2.4-49.2-3.6
										c-10.8-0.8-21.5-1.6-32.3-2.4c-7.6-0.5-15.3-0.8-22.8-1.8c-2-0.3-4-0.6-5.4-2.2C-9.9,391.6-9.9,322.7-9.9,253.8z"/>
									<path class="st31" d="M-9.9,460.5c16.5,1.3,33,2.7,49.5,3.9c10.9,0.8,21.8,1.3,32.7,2.1c16.3,1.2,32.7,2.6,49,3.8
										c10.4,0.8,20.8,1.4,31.2,2.1c17,1.2,34,2.1,51,3.8c10.7,1.1,21.5,1.4,32.2,2.2c16.8,1.2,33.7,2.6,50.5,3.9
										c9.9,0.7,19.8,1.4,29.7,2.1c17.5,1.3,35,2.7,52.5,3.9c11.1,0.8,22.2,1.3,33.2,2.1c16.2,1.2,32.3,2.6,48.5,3.8
										c10.7,0.8,21.5,1.3,32.2,2.1c16.5,1.2,33,2.8,49.5,3.8c10.1,0.6,20.2,1.5,30.2,2.2c17.3,1.2,34.7,2.5,52,3.8
										c10.4,0.8,20.9,1,31.2,2.2c13.3,1.6,26.8,0.6,40.2,2.4c7.1,0.9,14.8,1.5,22.2,0.6c3.6-0.5,7.1,2.7,10.6,0c0.7,0,1.3,0,2,0
										c0.3,0,0.7,0,1,0c0,0.3,0,0.7,0,1c0.2,0.4,0.2,0.8-0.1,1.2c-0.3,0.3-0.7,0.6-1.1,0.8c-1.1,0.3-2.2,0.8-3.3,1.1
										c-1.7,0.2-3.3,0.5-4.9,1.1c-0.5,0.1-1,0.2-1.6,0.2c-61.6,11.8-123,24.7-184.4,37.2c-81.9,16.7-163.7,33.4-245.5,50.1
										c-66.7,13.6-133.3,27.3-200,40.8c-27.2,5.5-54.5,11.1-81.7,16.7c-2.8,0.6-5.8,1.9-8.6-0.4C-9.9,594.4-9.9,527.5-9.9,460.5z
										"/>
									<path class="st32" d="M1452.5,60c0,17.3,0,34.6,0,51.9c-5.4,5.7-12.8,8.2-19.5,11.9c-46.9,25.9-93.9,51.7-140.8,77.4
										c-46.3,25.3-92.5,50.7-138.7,76.1c-42.3,23.2-84.6,46.5-126.9,69.7c-41.9,23-83.7,46-125.6,69
										c-35.7,19.6-71.5,39.2-107.2,58.9c-15.7,8.7-31.3,17.7-47.1,26.1c-1.2,0.6-2.4,1.2-3.2,2.3c-2.3,2.5-5.8,3.1-8.2,5.4
										c-0.4,0.3-0.8,0.6-1.2,0.8c-3.1,0.6-5.7,2.3-8.3,4c-1.3,0.3-2.6,0.3-3.5-0.9c0-0.3,0-0.6,0-0.9c0.4-0.3,0.4-0.9,1-1
										c0.3-0.3,0.7-0.7,1-1c3,0.6,4.3-2.9,7-3c7.2-3.1,13.5-7.8,20.1-11.8c15.7-9.6,31.1-19.7,46.7-29.5c5-3.2,10.1-6.4,15.2-9.6
										c27.9-17.4,55.7-35,83.5-52.5c37.7-23.8,75.6-47.2,113.5-70.7c54.5-33.8,109-67.6,163.4-101.3
										c44.8-27.8,89.7-55.6,134.6-83.4c46.1-28.6,92.2-57.3,138.5-85.7C1448.4,60.9,1450.1,59.1,1452.5,60z"/>
									<path class="st33" d="M1452.5,60c-23.1,14.4-46.2,28.8-69.4,43.2c-22.2,13.8-44.3,27.5-66.5,41.2
										c-29.8,18.4-59.6,36.9-89.4,55.3c-24.4,15.1-48.8,30.3-73.2,45.4c-32.6,20.2-65.3,40.4-97.9,60.6c-27.4,17-54.7,34-82.1,51
										c-29.5,18.3-59.1,36.5-88.6,54.8c-22.6,14-45.2,28-67.7,42.1c-1.4,0.9-2.8,1.8-4.5,2c7.3-6.3,15.9-10.7,24-15.9
										c41.3-26.5,82.6-52.7,124-79c42.1-26.7,84.2-53.4,126.2-80.2c21.2-13.5,42.2-27.1,63.4-40.6c37.5-24,75.1-47.9,112.6-71.8
										c42.3-26.9,84.7-53.7,127.1-80.7c18.8-11.9,37.5-24.1,56.2-36.1c1.8-1.2,3.6-2.4,5.9-2.3
										C1452.5,52.6,1452.5,56.3,1452.5,60z"/>
									<path class="st28" d="M723.3,510.5c-0.3,0.3-0.7,0.7-1,1c0-2.7,0-5.3,0-8c0.7-1.3,1.3-2.7,2-4c0,1.7,0,3.3,0,5
										C724,506.5,723.6,508.5,723.3,510.5z"/>
									<path class="st28" d="M726.3,491.5c0,1,0,2,0,3c0.1,1.7-0.3,3.2-2,4c0-0.7,0-1.3,0-2C726,495.3,724.6,492.8,726.3,491.5z"
										/>
									<path class="st34" d="M722.3,512.5c1.3,0,2.7,0,4,0c0.5-0.4,1-0.7,1.6-0.9c7.3-0.1,14.3-2,21.7-1.9c10,0.1,20-1.2,29.9-2.2
										c12.7-1.3,25.5-1.8,38.3-2.8c19-1.5,38.1-2.5,57.2-3.8c12.6-0.8,25.2-1.6,37.8-2.4c17.6-1.2,35.1-2.3,52.7-3.6
										c11.9-0.9,23.9-1.5,35.8-2.3c18.4-1.2,36.8-2.5,55.2-3.7c12.1-0.8,24.2-1.6,36.3-2.4c18.1-1.2,36.1-2.3,54.2-3.6
										c11.9-0.9,23.9-1.6,35.8-2.4c18.1-1.2,36.1-2.4,54.2-3.6c12.1-0.8,24.2-1.6,36.3-2.4c18.2-1.2,36.5-2.5,54.7-3.6
										c12.6-0.8,25.2-1.7,37.8-2.4c12.4-0.7,24.9-1.7,37.3-2.5c15.1-1,30.2-2.1,45.3-2.9c1.5-0.1,3,0.3,4.1,1.4
										c0,20.3,0,40.6,0,60.9c-1.3,1.5-3.1,2-5,1.9c-8.5-0.1-17,0.7-25.4-0.6c-2.5-0.4-5-0.3-7.5-0.3c-33.8,0.6-67.5-1-101.3-1.3
										c-15.9-0.1-32,0.2-47.9-0.9c-19-1.3-38,0.2-56.9-1c-22.5-1.4-44.9,0.2-67.3-1c-21.6-1.2-43.3,0.2-64.8-1
										c-18.8-1.1-37.6,0-56.4-0.9c-28.9-1.3-57.8-0.7-86.7-2c-5.3-0.2-10.6-0.4-15.9-0.4c-18.3,0.1-36.5-1.2-54.8-1.2
										c-16.5,0-33.1-0.6-49.6-0.9c-25.3-0.3-50.5-1.4-75.8-1c-2.7,0-5.3-0.1-8,0.1c-2,0.4-3.9,0-5.8-0.3c-0.5-0.1-1-0.3-1.5-0.7
										c-0.2-0.2-0.3-0.4-0.5-0.7c0-0.3,0-0.6,0-1C721.6,512.5,722,512.5,722.3,512.5z"/>
									<path class="st23" d="M722.3,513.5c2,0,4,0,6,0c3.5,0.8,7.2,0.7,10.8,1.1c1.1,0.2,2.1,0.5,3.1,0.9
										c5.2,1.5,10.5,2.8,15.9,3.7c7.3,1.2,14.5,3.2,21.6,5.2c10.2,2.9,20.7,4.6,31,7c56.5,12.8,112.9,25.8,169.3,38.7
										c60.2,13.8,120.3,27.8,180.4,41.9c57.2,13.4,114.4,26.5,171.6,40.1c35.5,8.4,70.9,16.7,106.4,25c4.9,1.1,10.4,1,14.2,5.3
										c0,44,0.1,87.9,0.1,131.9c0,71.8,0,143.5,0,215.3c0,6.5,0,6.5-6.5,6.5c-59.4,0-118.9,0-178.3-0.1c-4.2-3-8.1-6.3-11.8-10
										c-19-19.1-38.9-37.3-58.2-56.1c-14.4-14-29-27.9-43.6-41.7c-23.1-22-46.2-44.1-69.3-66.2c-14.1-13.6-28.4-27.1-42.6-40.7
										c-23.1-22-46.2-44.1-69.3-66.2c-14.5-14-29.1-27.8-43.7-41.7c-23.1-22-46.3-44-69.3-66.2c-14.2-13.7-28.6-27.3-42.9-41
										c-23.7-22.6-47.4-45.2-71.1-67.9c-6.3-6.1-12.6-12.4-19.1-18.3c-0.7-0.6-1.5-1-2.3-1.5c-1.3-0.9-2.3-2.1-2.9-3.7
										C721.8,514.3,722,513.9,722.3,513.5z"/>
									<path class="st35" d="M-9.9,965.1c0-37,0-73.9,0-110.9c0.7-1.6,2.1-2.4,3.7-3.1c28.9-13.2,57.6-26.9,86.5-40.2
										c31.6-14.6,63.1-29.3,94.6-44c27.5-12.8,54.9-25.7,82.3-38.5c31.7-14.8,63.3-29.6,95-44.3c27-12.5,54-25.2,81-37.8
										c32.9-15.4,65.7-30.7,98.7-46c25.8-12,51.6-24,77.4-36.1c32-14.9,63.7-30.4,95.7-45.1c2.5-1.1,4.9-2.9,8-1.9
										c1.3,3.3-1.7,4-3.4,5.1c-18.8,11.6-37.6,23.4-56.4,35c-70.8,43.8-141.5,87.5-212.3,131.3c-53.2,32.9-106.5,65.8-159.7,98.7
										C222,824,162.7,860.6,103.4,897.3c-35.8,22.2-71.6,44.4-107.5,66.4C-5.8,964.7-7.5,966.7-9.9,965.1z"/>
									<path class="st36" d="M-9.9,661.4c14.4-2.2,28.6-5.6,42.9-8.5c46.9-9.5,93.9-19,140.8-28.5c41.3-8.4,82.5-16.9,123.7-25.4
										c40.4-8.2,80.9-16.4,121.3-24.6c38-7.8,76-15.7,114-23.5c35.2-7.2,70.6-14,105.7-21.5c23.2-4.9,46.6-8.8,69.7-13.6
										c1-0.2,2-0.1,3-0.2c-0.2,2.6-2.6,2.6-4.2,3.4c-16.5,7.2-33.7,12.5-50.6,18.5c-70.9,25.1-142.1,49.2-212.9,74.5
										c-49,17.6-98.2,34.8-147.2,52.2c-63.3,22.5-126.7,44.9-190,67.5c-36,12.9-72.1,25.6-108.2,38.4c-2.6,0.9-5.3,2.4-8,0.1
										C-9.9,734-9.9,697.7-9.9,661.4z"/>
									<path class="st19" d="M-9.9,965.1c10.8-5.6,20.8-12.4,31.1-18.8c45.1-27.7,90.2-55.6,135.2-83.4
										c40.9-25.3,81.8-50.8,122.7-76.2c50.7-31.4,101.4-62.7,152.1-94.1c40.7-25.1,81.4-50.3,122.1-75.4
										c44.8-27.6,89.7-55.2,134.3-83c8.7-5.4,18-10,25.8-16.7c0.2-0.2,0.3-0.3,0.5-0.5c0.9-0.4,1.8-0.4,2.6,0.2
										c0.2,0.4,0.3,0.8,0.3,1.3c-0.6,1.2-1.8,1.9-2.8,2.7c-1.5,0.8-2.8,1.9-3.9,3.2c-0.8,0.8-1.7,1.5-2.6,2.2
										c-8.4,6-16.5,12.4-24.6,18.6c-34.8,26.6-69.6,53.2-104.2,79.9c-50.2,38.7-100.4,77.6-150.5,116.3
										c-37.5,29-75.1,58-112.6,87c-56.5,43.6-113,87.3-169.5,131c-31.9,24.7-63.8,49.1-95.6,74c-1.3,1-2.9,1.6-4.3,2.5
										c-17.1,0-34.3,0-51.4,0.1c-3.5,0-4.6-1.1-4.6-4.6C-9.9,1009.3-9.9,987.2-9.9,965.1z"/>
									<path class="st13" d="M713.3,520.5c0.6-1.3,1.6-1.9,3-2c1.4,2-0.1,3.3-1,4.7c-8.4,9.2-16,19.1-24.2,28.5
										c-20.7,24.1-41.2,48.4-61.9,72.5c-19.8,23.1-39.5,46.4-59.2,69.6c-24,28.3-48.1,56.5-72.1,84.8
										c-19.4,22.8-38.8,45.7-58.2,68.5c-21.9,25.7-43.7,51.5-65.6,77.2c-17.8,20.9-35.5,41.9-53.3,62.7
										c-12.8,15.1-25.5,30.3-38.5,45.2c-1.3,1.5-2.8,2.9-4.6,3.7c-42,0-83.9,0-125.9,0c-1.4-2,0.4-3,1.5-4.2
										c6.8-7,14.3-13.4,21.5-20.1c10.1-9.2,20-18.5,30.2-27.6c14.5-13,28.7-26.2,43.1-39.4c13.5-12.3,26.9-24.7,40.4-37.1
										c14.1-12.9,28.2-25.8,42.3-38.7c9.3-8.5,18.6-17.1,27.9-25.6c14.3-13.2,28.7-26.2,43.1-39.4c9.3-8.5,18.6-17.1,27.9-25.6
										c14.3-13.1,28.7-26.3,43.1-39.4c13.5-12.3,26.9-24.7,40.4-37.1c14.1-12.9,28.2-25.9,42.3-38.7c9.4-8.5,18.6-17.1,27.9-25.6
										c18.4-16.8,36.7-33.7,55.2-50.5c13.6-12.4,27.3-24.9,40.8-37.5c9-8.4,18.3-16.4,27.8-24.1c0.7-0.7,1.3-1.3,2-2
										C710.7,522.6,711.9,521.4,713.3,520.5z"/>
									<path class="st37" d="M573.4,1035.9c-40,0-79.9,0-119.9,0c-1.7-2-0.5-3.8,0.4-5.5c23.8-46.6,47.6-93.1,71.8-139.4
										c6.4-12.3,12.6-24.6,18.9-36.9c16.2-31.8,32.6-63.4,48.8-95.1c17.7-34.7,35.7-69.3,53.4-103.9c11.5-22.4,22.7-44.9,34.6-67
										c8.1-14.9,15.5-30.2,23.6-45.1c4.3-7.9,7.7-16.2,12.2-24c0.8-1.3,1.1-2.8,3-2.7c1.2,1,1.3,2.3,1.2,3.7
										c-0.1,0.5-0.2,1.1-0.4,1.6c-10.2,36.5-20.7,72.9-31.1,109.4c-28.7,100.8-57.1,201.7-86,302.4c-9.2,32-18.2,64-27.3,96
										C576,1031.8,575.5,1034.3,573.4,1035.9z"/>
									<path class="st38" d="M-9.9,770.3c8.1-0.7,15.2-4.7,22.7-7.2c20.3-6.8,40.4-14.2,60.6-21.5c42.1-15,84.2-30.1,126.3-45.1
										c24.1-8.6,48.3-16.9,72.4-25.5c42.4-15.1,84.8-30.3,127.2-45.4c22.9-8.1,45.7-16.2,68.6-24.2
										c43.1-15.1,86.3-30.1,129.5-45.1c27.4-9.6,54.9-19.2,82.3-28.8c8.8-3.1,17.6-6,26.4-9.1c1.9-0.7,3.8-1.3,5.2-2.9
										c0.3,0,0.7,0,1,0c0.9-0.8,1.9-0.5,2.8-0.3c1.1,2.2-1.3,1.5-1.8,2.3c-8.1,2.2-15.2,6.6-22.8,10
										c-22.2,10.2-44.1,21.1-66.2,31.4c-31.6,14.8-63.3,29.4-95,44.1c-16.3,7.6-32.5,15.3-48.8,22.8
										c-33.7,15.7-67.5,31.4-101.2,47.2c-15.7,7.3-31.3,14.7-47,22c-33.6,15.7-67.2,31.3-100.8,46.9
										c-16.4,7.7-32.8,15.4-49.2,23.1c-32.8,15.3-65.7,30.5-98.6,45.8c-16.6,7.7-33.1,15.6-49.7,23.3c-14.6,6.7-28.9,14.2-44,20
										C-9.9,826.2-9.9,798.2-9.9,770.3z"/>
									<path class="st39" d="M707.3,525.5c-5.8,7.4-13.4,12.9-20.2,19.2c-5,4.6-9.9,9.3-15,13.8c-14.3,12.6-28.1,25.9-42.1,38.8
										c-16.1,14.8-32.3,29.6-48.4,44.4c-15.5,14.2-31.1,28.4-46.6,42.7c-16.2,14.8-32.3,29.6-48.4,44.4
										c-15.4,14.1-30.9,28.2-46.3,42.3c-19.8,18.1-39.6,36.3-59.5,54.5c-15.9,14.6-31.8,29.1-47.7,43.7
										c-15.7,14.3-31.3,28.7-47,43c-16,14.7-32,29.4-48.1,44.1c-15.7,14.3-31.3,28.7-47,43c-12.7,11.6-25.5,23.2-38.3,34.9
										c-0.4,0.4-0.6,1.1-0.9,1.7c-35.3,0-70.6,0-105.9,0c5.5-6.6,12.8-11,19.4-16.2c27.3-21.3,54.7-42.6,82.1-63.8
										c16.5-12.8,33.2-25.4,49.7-38.2c26.1-20.2,52.1-40.6,78.2-60.7c17.8-13.8,35.9-27.4,53.7-41.2
										c26.1-20.2,52.1-40.5,78.2-60.7c16.7-12.9,33.5-25.6,50.1-38.4c24.1-18.7,48.2-37.5,72.3-56.1
										c26.8-20.7,53.7-41.1,80.5-61.8c26.7-20.5,53.2-41.3,80.1-61.5C695.8,533.2,700.7,528.1,707.3,525.5z"/>
									<path class="st40" d="M720.3,516.5c-2.7,3-3.9,6.9-5.7,10.4c-8.4,16.8-16.3,33.9-25.3,50.4c-19.1,35.2-37,71.1-55.3,106.8
										c-11.4,22.2-22.8,44.4-34.3,66.5c-12.2,23.8-24.5,47.6-36.7,71.4c-11.6,22.5-23.1,45-34.7,67.4
										c-12.5,24.3-24.9,48.5-37.4,72.8c-12.3,23.8-24.7,47.5-37,71.3c-0.4,0.7-0.3,1.6-0.4,2.4c-35,0-69.9,0-104.9,0
										c-1.1-2.7,0.8-4.5,2.1-6.3c24.9-34.4,49.3-69.1,74.1-103.5c37-51.5,73.7-103.2,110.7-154.7c28.3-39.5,56.5-79.1,84.8-118.6
										c26.7-37.3,53.3-74.8,80-112.2c4.4-6.2,9.4-12.1,14-18.1c0.6-1.4,2.1-2.3,2-4c0-0.3,0-0.7,0-1c0.3-2.4,2.5-2.8,4-4
										c0.3,0,0.7,0,1,0c0,0,0,0,0,0c0.6,0.5,0.5,1.2,0.5,1.8C721.5,516,721,516.4,720.3,516.5z"/>
									<path class="st11" d="M727.3,518.5c7.1,5.8,13.2,12.6,20,18.7c13.6,12.4,26.4,25.8,39.8,38.5
										c15.4,14.5,30.5,29.1,45.8,43.7c15.3,14.6,30.5,29.2,45.7,43.7c15.1,14.5,30.2,28.9,45.4,43.4c13.3,12.7,26.8,25.3,40,38.2
										c16.5,15.9,32.9,31.9,49.7,47.6c14.4,13.5,28.7,27.2,42.9,40.9c15.6,14.9,31.2,29.9,46.8,44.8
										c14.8,14.1,29.6,28.2,44.3,42.3c15.3,14.6,30.5,29.2,45.7,43.7c14.7,14,29.2,28.2,44.1,41.9c9.4,8.7,17.7,18.5,27.9,26.3
										c1.2,0.9,2.2,2,2.3,3.7c-35.6,0-71.3,0-106.9,0c-4.3-2.8-6.5-7.5-9.7-11.3c-32.4-38.8-64.7-77.8-97.2-116.6
										c-37.1-44.3-73.7-88.9-111.1-133c-38.4-45.3-76.6-90.8-115.3-135.9c-19.9-23.2-39.5-46.8-59.5-70
										c-12.1-14.1-24.4-28.1-36.2-42.6c-1.3-1.5-2.8-2.8-4.3-4.1c-0.5-0.5-0.9-1.2-1-2C726.5,519.7,726.7,519,727.3,518.5z"/>
									<path class="st8" d="M727.3,520.5c0.3,0.3,0.7,0.7,1,1c16.6,20.5,30.2,43,45.1,64.6c34.9,50.7,69.7,101.5,104.8,152.1
										c28.5,41.2,57,82.4,85.5,123.6c31.4,45.4,62.8,90.9,94.4,136.2c7.1,10.2,14.1,20.6,21.2,30.8c1.4,2,3.8,4.1,1.7,7.1
										c-32,0-63.9,0-95.9,0c-1.6-1.3-2.4-3.2-3.3-5c-16.2-32.8-33.1-65.3-49.6-98c-19.6-38.8-39.3-77.4-59-116.2
										c-20.3-39.9-40.4-79.9-60.9-119.7c-15.3-29.7-30.1-59.8-45.1-89.7c-9.6-19.2-19.8-38.1-29.3-57.4
										c-4.2-8.5-7.7-17.3-12.2-25.7c-0.8-1.5-1.6-3-0.7-4.7C726.2,518.6,726.7,519.7,727.3,520.5z"/>
									<path class="st41" d="M734.3,507.5c2.7-1.7,5.3-3.3,8-5c19.4-10.3,39.2-19.6,59-29.1c13.5-6.5,27.1-12.7,40.7-19.1
										c43.8-21,87.8-41.7,131.7-62.5c23-10.9,46.1-21.7,69-32.8c41.8-20.3,83.9-39.8,125.7-60c23.2-11.2,46.6-22.2,69.8-33.4
										c50.4-24.2,100.8-48.4,151.1-72.9c17.7-8.6,35.4-17,53.1-25.5c3.1-1.5,6.2-4.2,10.2-2.4c0,21.3,0,42.6,0,63.9
										c-1.4,1.6-3.3,2.2-5.2,2.9c-78.1,30.2-156.1,60.5-234.1,90.9c-45.8,17.8-91.5,35.6-137.3,53.4
										c-80.8,31.3-161.7,62.6-242.4,94.5c-26.9,10.6-53.9,20.8-80.6,32c-3.3,1.6-7,2.1-10.1,4.2c-1.3,0.8-2.6,1.6-4.1,2.1
										C737.1,509,735.6,508.8,734.3,507.5z"/>
									<path class="st42" d="M855.2,1035.9c-28,0-55.9,0-83.9,0c-3.2-4.4-2.3-9.6-2.7-14.4c-2.7-27-5.3-53.9-7.8-80.9
										c-2.1-23-4.3-46-6.5-69c-2.1-22-4.2-44-6.4-66c-1.9-19.2-3.6-38.4-5.5-57.6c-2.2-22.7-4.4-45.3-6.5-68
										c-1.8-19.5-3.8-39.1-5.6-58.6c-1.4-15.4-3-30.8-4.4-46.2c-0.8-8.6-1.5-17.2-2.2-25.8c-0.5-6.9-0.4-13.9-2.6-20.7
										c-0.6-3.9-0.1-7.8,0.6-11.6c2.4-1.9,2.5,0.8,2.7,1.6c0.6,3.1,2.3,5.7,3,8.7c3.6,17.2,8.4,34.2,12.9,51.2
										c9.5,36,18.7,72.2,27.9,108.3c20.1,79,40.5,158,60.6,237c8.8,34.5,17.6,69,26.5,103.5
										C856,1030.2,857.5,1033.1,855.2,1035.9z"/>
									<path class="st10" d="M1081,1035.9c0-3.7-2.7-6-4.5-8.7c-14.6-21.2-29.3-42.3-44-63.5c-28.7-41.3-57.4-82.7-86-124
										c-16.7-24.2-33.3-48.4-50-72.6c-30.2-43.8-60.3-87.5-90.5-131.2c-15.4-22.3-30.7-44.6-46-66.9
										c-9.8-14.4-19.7-28.7-29.5-43.1c-0.9-1.3-2.2-2.5-2.3-4.4c8.3,7.9,15.2,17,22.7,25.6c9.5,10.9,18.8,21.9,28.2,32.8
										c8.3,9.7,16.6,19.4,24.8,29.2c8.7,10.2,17.4,20.5,26.1,30.7c10.4,12.3,20.8,24.5,31.2,36.8c8.5,10,17,19.9,25.5,29.9
										c9.8,11.5,19.4,23.1,29.2,34.6c8.7,10.2,17.4,20.4,26.1,30.7c9.3,11,18.6,22.1,27.8,33.2c10.8,13,21.6,26,32.4,39
										c11,13.3,22,26.5,33.1,39.8c10.9,13.1,22,26.1,32.9,39.2c11,13.2,22,26.5,33,39.8c10.7,12.9,21.7,25.5,32.2,38.6
										c9.2,11.5,20,21.7,27.4,34.7C1134.2,1035.9,1107.6,1035.9,1081,1035.9z"/>
									<path class="st43" d="M1452.5,464.6c-17.3,1.3-34.6,2.7-52,3.9c-12.6,0.9-25.2,1.3-37.7,2.1c-17.5,1.2-35,2.6-52.5,3.8
										c-5.6,0.4-11.2,0.5-16.9,1c-18.2,1.4-36.4,1.9-54.6,3.2c-20,1.5-40,2.7-60,4c-20,1.3-40,2.7-60,4c-15.4,1-30.7,2-46.1,3
										c-14.9,1-29.7,1.9-44.6,3c-20.5,1.5-41,2.7-61.5,4c-14.9,0.9-29.7,2-44.6,3c-15.4,1-30.7,2.1-46.1,3
										c-15.2,1-30.4,2-45.6,2.9c-17.2,1-34.3,2.6-51.5,3.9c-5.6,0.4-11.2,1.2-16.7,1.5c-5.3,0.2-10.8,0.3-16.2,0.1
										c-6.2-0.2-12.4,2.2-18.7,1.4c-0.4-1.7,1.1-1.4,1.9-1.9c2-0.6,4.2-0.4,6.2-1.3c0.5-0.1,1.1-0.2,1.6-0.2
										c13.8-1.6,27.5-4,41.3-6c12.8-1.4,25.6-3.4,38.4-5.3c23-3.4,45.9-6.8,68.9-10.1c54.2-7.8,108.3-15.5,162.5-23.5
										c60.7-8.9,121.4-17.8,182.2-26.5c48.9-7,97.7-14.3,146.6-21.4c22.9-3.4,45.7-6.8,68.6-10c2.5-0.3,5-0.7,7,1.4
										C1452.5,426.6,1452.5,445.6,1452.5,464.6z"/>
									<path class="st44" d="M1452.5,164.8c-2.9,1.1-6,2.1-8.8,3.5c-25.3,12.3-50.5,24.6-75.9,36.9
										c-27.8,13.5-55.7,26.9-83.6,40.3c-29.2,14-58.5,27.9-87.8,41.9c-26.2,12.6-52.4,25.5-78.7,37.8
										c-28.3,13.2-56.5,26.7-84.7,40.3c-24.4,11.8-49,23.2-73.5,34.8c-31.7,15-63.4,30-95.1,45.1c-27.8,13.2-55.4,26.7-83.4,39.5
										c-12.9,5.9-25.3,13.1-38.9,17.6c3.7-3.8,8.6-5.5,13.1-7.9c23.7-13.4,47.6-26.6,71.4-39.7c17.9-9.9,35.9-19.6,53.8-29.4
										c25.8-14.2,51.5-28.4,77.2-42.6c18.2-10,36.5-19.9,54.7-29.9c25.3-13.9,50.6-27.9,75.9-41.9c15.1-8.3,30.4-16.5,45.5-24.8
										c26.2-14.4,52.4-28.8,78.6-43.2c18.1-9.9,36.2-19.7,54.2-29.7c26.2-14.4,52.4-28.8,78.6-43.2c17.8-9.8,35.6-19.5,53.3-29.2
										c16.3-9,32.6-18,48.9-26.9c1.6-0.9,3.3-1.4,5-2.1C1452.5,129.5,1452.5,147.2,1452.5,164.8z"/>
									<path class="st45" d="M714.3,522.5c-5.1,9.3-11.9,17.5-17.9,26.2c-13.8,19.9-28,39.5-42.1,59.2
										c-22.7,31.7-45.4,63.4-68,95.1c-18,25.2-36.1,50.5-54.1,75.7c-23,32.1-46,64.2-68.9,96.3c-20.3,28.3-40.4,56.7-60.7,85.1
										c-16.7,23.3-33.5,46.6-50.3,69.9c-1.4,1.9-2.4,4-3.6,5.9c-23.6,0-47.3,0-70.9,0c7.1-8.6,14.1-17.2,21.2-25.6
										c10.7-12.7,21.4-25.3,32.1-37.9c8.6-10.1,17.3-20.1,25.9-30.2c10.3-12.1,20.5-24.3,30.8-36.4c8.2-9.7,16.5-19.4,24.8-29.2
										c10.4-12.3,20.7-24.5,31.2-36.8c8.5-10,17-19.9,25.5-29.9c10.5-12.4,21-24.8,31.5-37.2c10.2-12,20.4-24,30.6-35.9
										c10.4-12.2,20.8-24.5,31.2-36.8c8.4-9.9,16.8-19.7,25.1-29.5c12.4-14.7,24.8-29.4,37.2-44c10.5-12.4,21.2-24.6,31.8-37
										c14.4-16.9,28.6-34,43.1-50.7C704.6,533.3,708.7,527.2,714.3,522.5z"/>
									<path class="st9" d="M726.3,527.5c-1.1-3.7-1.9-7.6-4-11c-0.6-0.7-0.6-1.3,0-2c1,1,2,2,3,3c0.6,0.7,0.6,1.3,0,2
										c3.7,8,7.1,16.1,11,24c24.2,48.3,48.4,96.7,73,144.8c10,19.5,19.5,39.4,29.8,58.7c10.4,19.5,19.6,39.6,30.1,59.2
										c10.4,19.4,19.5,39.4,29.9,58.7c10.4,19.5,19.7,39.6,30.1,59.2c10.4,19.5,19.6,39.7,30.1,59.1
										c8.3,15.4,15.7,31.2,23.7,46.7c1,1.9,2.2,3.7,2.1,6.1c-23,0-46,0-68.9,0c-2.2-1.5-3-3.9-3.9-6.2
										c-21-56.5-42.2-112.8-63.2-169.3c-13.4-35.9-27-71.7-40.3-107.5c-25.4-68.5-51.3-136.8-76-205.6
										C730.3,540.8,728.3,534.1,726.3,527.5z"/>
									<path class="st22" d="M573.4,1035.9c3.2-14.4,7.8-28.5,11.8-42.7c10.7-38,21.5-76,32.3-114c8.8-31,17.8-61.9,26.6-92.8
										c8.1-28.6,16.1-57.2,24.2-85.8c9-31.6,18-63.2,27-94.8c7.7-27,15.4-53.9,23.1-80.9c0.4-1.6,0.7-3.3,1.9-4.5
										c1,0.9,0.9,2.1,1,3.3c-3.7,36.7-10.6,73-16.1,109.4c-9.4,62.7-19.3,125.2-28.9,187.9c-10.6,68.9-21.3,137.7-31.9,206.6
										c-0.5,2.9-0.6,6-2.9,8.3C618.7,1035.9,596.1,1035.9,573.4,1035.9z"/>
									<path class="st18" d="M641.4,1035.9c1.8-12.3,3.6-24.5,5.5-36.8c2.8-18.8,5.6-37.6,8.5-56.4c2.8-17.8,5.7-35.6,8.4-53.5
										c2.9-18.8,5.7-37.6,8.6-56.4c2.7-17.5,5.4-35,8.2-52.5c2.9-18.5,5.9-36.9,8.8-55.4c3.6-23.2,7.3-46.4,10.8-69.6
										c3.8-25.4,7.3-50.8,11.4-76.1c1.7-10.2,3.6-20.4,5.3-30.6c1.4-8.3,2-16.7,3.5-25c1.1-0.1,1.4,0.6,1.5,1.5
										c0.5,8.4,2.1,16.8,0.1,25.3c-0.3,1.1-0.1,2.3-0.1,3.5c0.4,18.6-0.2,37.3-0.7,55.9c-0.6,23.9-1.3,47.8-2,71.7
										c-0.6,21.8-1.3,43.5-2,65.3c-0.7,23.9-1.3,47.8-2,71.7c-0.7,21.8-1.3,43.5-1.9,65.3c-0.7,24.2-1.4,48.5-2.1,72.7
										c-0.6,21.9-1.8,43.8-1.8,65.8c0,4.8,0.1,9.7-3,13.8C684.7,1035.9,663,1035.9,641.4,1035.9z"/>
									<path class="st46" d="M726.3,527.5c5.9,10.5,8.7,22.2,12.9,33.3c10.9,29.1,21.6,58.2,32.4,87.3
										c9.1,24.4,18.1,48.9,27.2,73.3c12.9,34.5,25.9,69,38.8,103.6c9.7,26,19.3,52,29,77.9c13,34.7,26,69.3,38.9,104
										c3.6,9.6,7.1,19.3,10.6,29c-20.3,0-40.6,0-60.9,0c-1.8-11.9-5.6-23.2-8.5-34.8c-9.5-37.5-19-75-28.6-112.4
										c-10.7-41.8-21.4-83.6-32.1-125.4c-10.5-41-21-82-31.6-122.9c-7.8-30.2-15.8-60.3-23.4-90.6
										C729.2,542.5,726.6,535.2,726.3,527.5z"/>
									<path class="st47" d="M1452.5,335.7c0,12.3,0,24.6,0,37c-1.8,2.1-4.3,2.4-6.7,2.9c-44.8,8.6-89.5,17.2-134.4,25.6
										c-39.3,7.3-78.5,14.9-117.7,22.4c-82.7,15.9-165.4,31.7-248,47.8c-26.4,5.1-52.9,9.6-79.3,14.8
										c-25.7,5.1-51.3,10.3-77,15.2c-13.7,2.6-27.4,4.6-41.1,6.9c-0.5,0.1-1-0.1-1.5-0.3c-0.5-0.3-0.8-0.8-0.7-1.4
										c1-1.6,2.7-2,4.3-2.5c10.9-1.6,21.4-4.8,32-7.5c53.6-13.4,107.3-26.2,160.9-39.4c77.6-19,155.2-37.7,232.8-56.5
										c54.2-13.1,108.3-26.3,162.5-39.4c35.7-8.6,71.4-17.5,107.2-25.9C1448,335,1450.3,334,1452.5,335.7z"/>
									<path class="st32" d="M1452.5,682.3c-39.6-9.3-79.1-18.6-118.7-27.9c-42.2-9.9-84.3-19.8-126.5-29.6
										c-36.8-8.6-73.6-17.3-110.5-25.8c-47.8-11.1-95.7-22.2-143.5-33.2c-36.2-8.3-72.4-16.8-108.7-24.8
										c-19.3-4.2-38.5-8.8-57.7-13c-8.4-1.8-17-3.2-25.1-6.4c-4.7-1.8-10.1-1.4-15-3c-1.9-0.6-3.9-0.7-5.5-2.1
										c1-1.2,2.3-1.3,3.7-1.2c0.5,0.1,1.1,0.2,1.6,0.4c12.4,2.2,24.9,3.7,37.1,6.6c18.4,4.2,37,7.3,55.6,10.8
										c14.3,2.6,28.6,5.3,42.9,7.8c37.7,6.7,75.3,13.7,112.9,20.6c76.7,14.2,153.5,28.3,230.2,42.5
										c73.6,13.6,147.3,27.1,220.9,40.8c2.3,0.4,4.6,0.7,6.3,2.6C1452.5,659,1452.5,670.7,1452.5,682.3z"/>
									<path class="st48" d="M1452.5,335.7c-48.2,11.6-96.5,23.3-144.7,35c-30.5,7.4-61,14.9-91.4,22.3
										c-44.2,10.8-88.4,21.5-132.6,32.2c-32.7,7.9-65.5,15.8-98.3,23.8c-32.7,8-65.5,16.1-98.2,24.1
										c-43.9,10.7-87.8,21.3-131.6,31.9c-1.8,0.4-3.6,0.6-5.4,0.6c-0.1-2.6,2.2-2.7,3.7-3.1c1.9-0.6,3.8-1.1,5.7-1.8
										c0.5-0.2,1-0.3,1.5-0.4c19.3-5,38.3-11,57.4-16.5c72.5-21.2,145-42,217.7-62.6c95.1-27,190.2-53.9,285.2-81.1
										c41-11.7,81.9-23.4,122.9-35c2.6-0.7,5.4-2.2,8.1-0.1C1452.5,315,1452.5,325.4,1452.5,335.7z"/>
									<path class="st49" d="M1452.5,407.6c-13.7,0.9-27.2,3.5-40.8,5.5c-17,2.5-34,5-51.1,7.5c-15.1,2.2-30.1,4.4-45.2,6.6
										c-17.2,2.5-34.4,4.9-51.6,7.4c-14.7,2.1-29.4,4.4-44.2,6.5c-15.1,2.2-30.1,4.3-45.2,6.5c-16.9,2.5-33.7,5-50.6,7.5
										c-17,2.5-34,5-51.1,7.5c-15.1,2.2-30.1,4.4-45.2,6.6c-17.2,2.5-34.4,4.9-51.6,7.4c-17.5,2.5-35,5.1-52.5,7.6
										c-17.2,2.5-34.4,4.9-51.6,7.3c-18.2,2.6-36.3,5.2-54.5,7.7c-13.1,1.8-26.2,3.5-39.3,5.3c0.6-4.4,4.7-2.8,6.7-3.2
										c23-3.8,45.9-8.4,68.8-12.6c72.6-13.4,145.1-26.9,217.6-40.6c91.1-17.2,182.2-34.2,273.3-51.2
										c33.5-6.3,67.1-12.5,100.6-18.9c2.4-0.5,4.9-1.4,7.2,0.5C1452.5,388.3,1452.5,397.9,1452.5,407.6z"/>
									<path class="st21" d="M722.3,528.5c3,6.3,2.1,13.3,2.9,20c2,16.4,3.4,32.9,5,49.3c1.1,12.2,2,24.4,3.2,36.6
										c1.1,12,2.5,24,3.8,36c0.8,7.9,1.5,15.8,2.2,23.7c1.3,13.2,2.6,26.3,3.8,39.5c1.1,12,2,24.1,3.2,36.1
										c1.2,12.5,2.5,25,3.8,37.5c1.1,11.5,2.1,23.1,3.2,34.6c1.2,12.8,2.6,25.7,3.8,38.5c1.1,12,2.1,24.1,3.2,36.1
										c1.2,12.2,2.5,24.3,3.7,36.5c0.8,8.2,1.5,16.5,2.3,24.7c1.2,12.8,2.7,25.6,3.7,38.5c0.5,6.6,1.9,13.2,1.3,19.8
										c-11.3,0-22.6,0-34,0c-2.9-3.7-2.9-8.2-2.9-12.4c0.3-16.6-1-33.2-1.3-49.8c-0.4-21.4-1.3-42.8-2-64.3
										c-0.6-17.9-1.2-35.9-1.9-53.8c-0.8-22.9-1.4-45.8-2.1-68.7c-0.7-21.1-1.2-42.2-2-63.3c-0.7-18-0.2-35.9-0.9-53.8
										c-0.8-20.6-0.9-41.2-2.1-61.8c-1.1-18.3,0.3-36.5-0.5-54.8C721.2,545.1,721.2,536.7,722.3,528.5z"/>
									<path class="st50" d="M752.3,501.5c7.2-4.3,15.2-6.7,22.8-9.7c32.5-13,65.1-25.8,97.8-38.6c35.6-13.9,71.2-27.7,106.8-41.6
										c22-8.6,43.9-17.2,65.9-25.7c45-17.5,90.1-34.8,135.2-52.3c29.6-11.5,59.1-23.1,88.6-34.6c34.7-13.5,69.4-26.8,104.1-40.3
										c24.6-9.5,49.2-19.1,73.8-28.8c1.7-0.7,3.4-1.3,5.3-1.1c0,7.7,0,15.3,0,23c-1.2,2.8-3.9,3.5-6.4,4.3
										c-29,10.2-58,20.8-87,31.1c-43.4,15.5-86.8,31-130.2,46.6c-36.7,13.2-73.3,26.2-110,39.3c-47,16.8-94,33.6-141.1,50.3
										c-39.2,13.9-78.6,27.5-117.8,41.6c-17.3,6.3-34.7,12.5-52.1,18.7c-1.4,0.5-2.8,1-4.1,1.8c-3,1.2-6.1,2.1-9.2,3.2
										c-2,0.1-3.7,1.1-5.4,2c-10.3,3.8-20.7,7.5-31.3,10.7c-1,0.3-1.8,1-2.9,1C754,502.5,753,502.5,752.3,501.5z"/>
									<path class="st51" d="M1452.5,304.7c-14.6,3.2-28.8,7.9-43.2,12c-37.7,10.6-75.4,21.3-113.1,32.1
										c-31.3,8.9-62.6,17.9-93.9,26.9c-34,9.7-68,19.3-102.1,28.9c-32.7,9.3-65.5,18.5-98.2,27.9
										c-35.3,10.1-70.6,20.1-105.8,30.3c-34.3,9.9-68.5,20-102.9,29.8c-11,3.1-21.8,7-33.1,9c0.1-2.5,2.3-2,3.7-2.5
										c54.1-18.3,108.6-35.6,163.1-52.9c35.1-11.1,70.1-22.3,105.2-33.3c48.5-15.2,96.9-30.3,145.4-45.5
										c36.4-11.4,72.8-22.8,109.1-34.2c48.4-15.2,96.9-30.4,145.4-45.5c4.6-1.4,9.1-3.2,13.8-4.4c2.2-0.6,4.6-1.4,6.6,0.6
										C1452.5,290.7,1452.5,297.7,1452.5,304.7z"/>
									<path class="st52" d="M722.3,528.5c0,9.3-0.6,18.7,0.1,27.9c1.1,14.6,0.3,29.2,1,43.8c0.9,20.1,1.2,40.1,2.1,60.2
										c0.8,17.1-0.3,34.3,1,51.3c0.9,12,0.2,23.9,0.8,35.8c1.1,21.2,1.4,42.4,2.2,63.7c0.4,9.6,0.2,19.2,0.8,28.8
										c1.2,21,1.4,42.1,2.2,63.2c0.3,9,0.3,17.9,0.8,26.9c1.2,21.7,1.5,43.4,2.2,65.2c0.3,8.6,0.3,17.2,0.7,25.9
										c0.2,5,0.6,9.9,1,14.9c-10.3,0-20.6,0-31,0c1.3-24.2,1.4-48.5,2.3-72.7c0.4-10.6,0.2-21.3,0.8-31.9
										c1.2-23.7,1.4-47.5,2.2-71.2c0.4-10.3,0.2-20.6,0.7-30.9c1.2-24.4,1.5-48.8,2.3-73.2c0.3-9.1,0.3-18.2,0.7-27.4
										c1.1-25.1,1.5-50.1,2.3-75.2c0.3-10.3,0.2-20.6,0.7-30.9c1.2-24.1,1.6-48.1,2.2-72.2c0.2-7.4,0.6-14.9,0.7-22.4
										c0-1.6,0.4-3.4-1-4.7c0-1,0-2,0-3c1.2-1.5-0.2-3.5,1-5c0-0.7,0-1.3,0-2c0.3,0,0.7,0,1,0c0,0.3,0,0.6,0,0.9c0,0.7,0,1.3,0,2
										C722.3,520.5,722.3,524.5,722.3,528.5z"/>
									<path class="st53" d="M1452.5,283.7c-9.4,0.9-17.9,4.8-26.8,7.6c-48.7,15.1-97.4,30.6-146,45.9
										c-26.6,8.4-53.3,16.6-79.9,25c-46.6,14.6-93.2,29.3-139.8,43.9c-26.8,8.4-53.6,16.7-80.4,25.2
										c-39.3,12.5-78.5,25.1-117.8,37.5c-26,8.2-52.1,16-77.9,24.6c-7.8,2.6-16,4.3-23.5,8.1c-1.3,0.5-2.7,1.3-3-1
										c10.7-3.7,21.3-7.3,32-11c1.6-0.9,3.4-1.1,5-2c3-1,6-2,9-3c29.3-10.2,58.5-20.5,87.8-30.8c61.5-21.5,123-42.7,184.6-63.9
										c24.4-8.4,48.8-16.8,73.2-25.1c66.5-22.6,132.8-45.6,199.3-68.2c32.3-11,64.5-22.2,96.8-33.2c2.4-0.8,4.9-2.5,7.6-0.6
										C1452.5,269.7,1452.5,276.7,1452.5,283.7z"/>
									<path class="st41" d="M783.2,523.5c-12.6-2.7-25.5-3.7-38-7c1.7-1.9,3.9-1.6,6-1.3c9.9,1.6,19.9,2.3,29.7,4
										c10.9,2.2,22,3.1,32.9,4.8c15.1,2.3,30.2,4.1,45.3,6.5c10.4,1.6,20.9,3,31.4,4.4c20.2,2.7,40.4,5.2,60.6,8
										c50.4,6.8,100.8,14,151.2,20.8c46.5,6.3,93,12.5,139.5,18.7c21.9,2.9,43.8,5.9,65.7,8.6c19,2.4,37.9,5.2,56.8,7.6
										c27.9,3.5,55.7,7.4,83.5,11.1c1.7,0.2,3.3,0.5,4.5,1.8c0,6.3,0,12.7,0,19c-2.4,2.3-5.2,1.6-8,1.2
										c-38.3-6.1-76.5-12.4-114.8-18.6c-81.3-13.1-162.6-26.1-243.9-39.3c-57-9.3-113.9-18.5-170.9-27.9
										c-22.1-3.7-44.3-6.6-66.3-10.7c-20.3-3.8-40.9-6.5-61.1-10.9C786.2,523.8,784.6,524.4,783.2,523.5z"/>
									<path class="st54" d="M1452.5,565.4c0,6,0,12,0,18c-1.6,1.6-3.6,1.5-5.6,1.3c-24.5-2.4-49-4.8-73.5-7.1
										c-29.5-2.8-58.9-5.7-88.3-8.4c-22.3-2.1-44.7-4.4-67-6.5c-22.5-2.1-45-4.3-67.5-6.4c-25.6-2.4-51.3-5-76.9-7.5
										c-19-1.8-38-3.7-57.1-5.4c-19.2-1.8-38.3-3.8-57.5-5.7c-16-1.6-31.9-3.3-47.9-4.8c-15.3-1.5-30.6-3-45.9-4.6
										c-12.2-1.2-24.4-2.4-36.6-3.4c-21.5-1.8-42.9-4.6-64.3-6.9c-1-0.1-1.5-0.6-1.2-1.7c4-2.4,8.6-1.6,12.6-1
										c6.3,1.1,12.6,1,18.8,1.4c11.6,0.8,23.2,1.7,34.7,2.4c14,0.9,28.1,1.9,42.1,3c17.9,1.3,35.8,1.9,53.6,3.6
										c23.5,2.3,47,3.2,70.4,5c23,1.7,46.1,3.2,69.1,5c25,1.9,50,3.6,75.1,5.6c21,1.6,42.1,2.9,63.1,4.4
										c25.2,1.8,50.4,3.7,75.6,5.6c16.1,1.2,32.2,2.2,48.2,3.3c21,1.5,42.1,3.1,63.1,4.6c15.7,1.1,31.5,2.4,47.2,3.4
										C1442.3,562.9,1447.8,562.3,1452.5,565.4z"/>
									<path class="st55" d="M783.2,523.5c8.8,0.3,17.3,2.5,26,3.6c11.8,1.5,23.6,3.5,35.3,5.4c11.9,2,23.8,4.6,35.7,6.2
										c12.7,1.7,25.4,3.7,38.1,5.7c35,5.7,69.9,11.3,104.8,17.1c35.6,5.9,71.2,11.9,106.8,17.7c29.9,4.9,59.8,9.5,89.7,14.3
										c26,4.2,51.9,8.5,77.9,12.7c26,4.2,52,8.1,78,12.3c21.1,3.4,42.1,7,63.2,10.4c4.6,0.7,9.1,1.8,13.8,1.5c0,5.7,0,11.3,0,17
										c-10.6-0.8-20.9-3.5-31.3-5.4c-32.3-5.8-64.5-11.7-96.7-17.7c-24.3-4.5-48.5-9.2-72.7-13.7c-27.7-5.1-55.4-10.1-83.1-15.2
										c-31.9-5.9-63.8-11.9-95.7-17.8c-39.7-7.4-79.4-14.7-119.2-22c-16.3-3-32.6-6-48.8-9c-30.6-5.6-61.2-11.3-91.8-17
										C803.2,527.8,793,526.6,783.2,523.5z"/>
									<path class="st56" d="M1452.5,537.5c0,4.7,0,9.3,0,14c-3.9,3.1-8.4,1.5-12.5,1.3c-17.6-0.9-35.2-1.8-52.7-2.9
										c-14.6-0.9-29.1-1.2-43.7-2.7c-6.9-0.7-13.9-0.7-20.9-0.9c-10.1-0.3-20.2-1-30.3-1.5c-19.4-0.9-38.7-2.1-58.1-3
										c-12.1-0.6-24.2-1.3-36.2-2c-19.4-1-38.7-2.2-58.1-3.1c-12.1-0.5-24.2-1.1-36.3-2c-14.9-1.1-29.8-1.1-44.7-2.7
										c-6.8-0.7-13.6-0.7-20.4-0.9c-10-0.3-19.9-0.9-29.8-1.5c-14.9-0.9-29.8-1.5-44.7-2.5c-11.2-0.7-22.5-1.9-33.9-1.3
										c-10.4-0.7-20.8-1.3-31.2-1.9c-17.5-1.1-35-2.2-52.5-3.2c-15-0.9-30.1-2-45.1-2.8c-1.9-0.1-4.1,0.7-5.3-1.6
										c0.5-1.9,2.1-1.4,3.3-1.3c14.1,0.8,28.2-0.1,42.3,1.3c7.1,0.7,14.2-0.1,21.4,0.1c29.6,0.9,59.2,1.6,88.7,2.3
										c20.8,0.5,41.5,1.2,62.3,1.9c19.8,0.7,39.5,1.3,59.3,2c19.9,0.7,39.9,1.3,59.8,2c19.6,0.7,39.2,1.3,58.8,2
										c20.1,0.8,40.2,1.3,60.3,2c19.6,0.7,39.2,1.3,58.8,2c19.9,0.7,39.9,1.3,59.8,2c19.8,0.7,39.5,1.5,59.3,2
										c5.8,0.1,11.6,1,17.4,1C1449.4,535.5,1451.2,536,1452.5,537.5z"/>
									<path class="st57" d="M1452.5,537.5c-14.6,0.3-29.2-0.9-43.8-1.2c-19.2-0.5-38.5-1.3-57.7-1.9c-20.4-0.7-40.8-1.3-61.2-2
										c-19.2-0.7-38.5-1.4-57.7-2c-20.4-0.7-40.8-1.3-61.2-2c-19.4-0.7-38.8-1.3-58.2-2c-20.2-0.7-40.5-1.3-60.7-2
										c-19.4-0.7-38.8-1.4-58.2-2c-20.2-0.7-40.5-1.3-60.7-2c-19.4-0.7-38.8-1.4-58.2-2c-20.2-0.7-40.4-1.6-60.7-2
										c-6-0.1-12.1-2-18.1,0.1c-1.6,1.4-3.4,1-5.2,0.5c-10.6-0.9-21.2-2.3-31.8-1c-4.6,0.2-9.2-0.8-13.8-0.5
										c-3.1-0.2-6.5,0.7-9.1-2c16,0,32-0.7,47.9,0.2c16.8,1,33.6,0.5,50.3,0.8c17.5,0.3,35.1,0.2,52.6,1.1
										c21.4,1.2,42.9-0.1,64.3,1.1c16.6,0.9,33.3,0,49.8,0.8c21.9,1.2,43.9,0,65.8,1.2c20.5,1.1,40.9-0.3,61.3,0.9
										c23.5,1.4,46.9-0.3,70.3,1.1c18.6,1.1,37.3-0.3,55.8,1c16.5,1.1,33-0.2,49.3,1c18.6,1.4,37.3-0.2,55.8,1
										c20.1,1.3,40.3-0.1,60.3,1.1c10.8,0.7,21.6,0.4,32.4,0.8C1452.5,529.5,1452.5,533.5,1452.5,537.5z"/>
									<path class="st58" d="M1452.5,611.4c-12.8-0.2-25.3-3.2-37.9-4.5c-13.8-1.4-27.3-4.2-41.2-5c-5.5-0.3-11.3-1.7-16.9-2.4
										c-8.8-1.1-17.6-2.2-26.3-3.4c-8.4-1.2-16.8-2.6-25.2-3.7c-6.1-0.8-12.3-1.4-18.4-2.1c-5.5-0.6-10.8-2.1-16.3-2.5
										c-8.7-0.6-17.4-2.2-26-3.4c-16.4-2.3-32.8-4.6-49.2-6.8c-16.1-2.1-32.2-4.1-48.2-6.3c-16.2-2.2-32.4-4.5-48.7-6.7
										c-15.4-2.1-30.8-4.1-46.2-6.2c-18.5-2.5-37-5.2-55.5-7.7c-15.4-2.1-30.8-4.1-46.2-6.3c-15.9-2.2-31.8-4.5-47.7-6.7
										c-15.2-2.1-30.5-4.1-45.7-6.3c-18.3-2.6-36.7-5.4-55-7.8c-6.8-0.9-13.8-1.2-20.5-3.2c3.2-1.5,6.4-0.4,9.6-0.1
										c4.2,0.3,8.4,1.3,12.7,1.2c2.6,1.2,5.3,0.9,8,0.9c0.5,0,1,0,1.6,0.1c2.4,1.1,4.9,0.9,7.5,0.9c0.5,0,1,0.1,1.5,0.2
										c4.2,0.8,8.5,1.2,12.8,1.3c0.7,0.1,1.5,0.3,2.2,0.4c1.7,0.3,3.4,0.6,5.2,0.5c1,0,2,0,3,0.2c1.9,0.8,3.9,0.9,5.9,0.7
										c1,0,2,0.1,3,0.3c1.9,0.9,3.9,0.7,5.9,0.8c0.8,0,1.5,0.1,2.2,0.3c1.9,0.9,3.9,0.7,5.9,0.7c1,0,2,0,3,0.3
										c1.9,0.9,4,0.7,6,0.7c0.8,0,1.6,0.1,2.4,0.4c4.8,0.6,9.6,1.9,14.6,1.6c0.9,0,1.7,0.1,2.6,0.4c9.7,1.6,19.4,2.3,29.1,3.7
										c15.1,2.1,30.2,3.8,45.4,5.6c12.5,1.5,25,3,37.4,4.5c12.5,1.4,25,2.9,37.4,4.6c9.2,1.2,18.4,2.1,27.6,3.3
										c13.1,1.7,26.2,3.1,39.3,4.7c12,1.4,24,3,36,4.2c17.2,1.8,34.3,3.9,51.5,5.9c23.8,2.8,47.5,5.7,71.3,8.6
										c32.9,4,65.7,7.9,98.6,11.8c25.4,3,50.9,6.1,76.3,9.2c2.3,0.3,4.7,0.5,5.9,3C1452.5,604.7,1452.5,608.1,1452.5,611.4z"/>
									<path class="st51" d="M813.2,523.5c-0.3,0-0.7,0-1,0c-2.5-1.4-5.5,0.3-8-1c-7.7,0.3-15.2-2.7-23-2
										c-9.5-1.1-19.1-2.1-28.5-3.5c-2.5-0.4-4.9-0.4-7.4-0.5c-0.1-0.3-0.2-0.5-0.3-0.8c0.4-0.5,0.9-0.7,1.5-0.7
										c5.6,0.2,11.3-0.8,16.8,1.5c3.8,2.1,8.1,1.3,12.1,1.7c15.6,1.8,31.3,2.8,47,4.3c18.9,1.8,37.7,4,56.5,5.8
										c12.2,1.2,24.4,2,36.6,3.1c15.3,1.5,30.6,3.3,45.9,4.8c12.2,1.2,24.4,2,36.6,3.2c12,1.1,24,2.6,36,3.7
										c11.9,1.2,23.7,2.1,35.6,3.2c12.3,1.2,24.7,2.5,37,3.7c7.9,0.8,15.8,1.5,23.7,2.3c12.8,1.3,25.7,2.5,38.5,3.8
										c11.4,1.1,22.7,2.1,34.1,3.2c13,1.3,26,2.6,39,3.8c11.7,1.1,23.4,2.1,35.1,3.2c12.2,1.2,24.3,2.6,36.5,3.7
										c11.9,1.2,23.7,2.1,35.6,3.2c12.3,1.2,24.7,2.4,37,3.7c7.6,0.8,15.1,1.6,22.7,2.2c13.9,1.1,27.7,2.3,41.5,4
										c0.7,0.1,1.3,0,2,0c0,3.7,0,7.3,0,11c-2.5,2.4-5.5,2-8.5,1.6c-36.7-4.3-73.4-8.3-110.1-12.4c-34.2-3.8-68.4-7.6-102.6-11.5
										c-26.1-3-52.2-5.8-78.2-8.9c-15.6-1.9-31.2-3.6-46.8-5.4c-18.5-2.2-37.1-4.4-55.6-6.6c-22.4-2.7-44.9-5.2-67.3-7.8
										c-15.8-1.9-31.5-3.8-47.3-5.6c-13.3-1.6-26.6-3.6-40-4.2c-0.7,0-1.3,0-2,0c-4.9-1.5-9.9-1.8-15-2c-0.7,0-1.3,0-2,0
										c-1.9-1.1-3.9-1-6-1c-1,0-2,0-3,0c-1.9-1.1-3.9-1-6-1c-0.7,0-1.3,0-2,0c-1.9-0.7-3.9-1-6-1c-1,0-2,0-3,0
										c-2-0.5-3.9-1.4-6-1c-1,0-2,0-3,0c-1.6-0.5-3.2-1.2-5-1c-0.7,0-1.3,0-2,0c-4.6-1.4-9.3-1.2-14-2
										C818.7,523.1,815.8,524.8,813.2,523.5z"/>
									<path class="st49" d="M763.3,516.5c-6-0.2-11.9-1.6-18-1c-0.3-0.2-0.3-0.4-0.3-0.7c0.1-0.2,0.2-0.3,0.3-0.3
										c4.7,0,9.3,0,14,0c2,1,4.2,0.5,6.3,0.5c8.6-0.2,17.1,0.8,25.6,1.5c1.7,0,3.3,0,5,0c1.3,0.3,2.6,1,3.8,0.9
										c9.8-0.6,19.5,0.8,29.3,1.2c21.6,0.9,43.2,2.6,64.8,3.8c10.1,0.6,20.2,0.7,30.3,1.1c1.9,0.1,4-0.6,5.7,1
										c7,1.3,14.2,0.8,21.3,1.3c16.6,1,33.1,2,49.7,2.7c25.9,1.2,51.7,3.1,77.5,4.1c11.6,0.4,23.2,1.3,34.8,2c20,1.2,40,2,60,3.4
										c5.7,1.8,11.5,0.6,17.3,1.1c0.6,0,1.1,0.1,1.7,0.2c5.1,1.5,10.4,0.3,15.6,0.8c0.6,0,1.1,0.1,1.6,0.2
										c5.1,1.5,10.3,0.3,15.4,0.8c0.6,0,1.1,0.1,1.6,0.2c5.4,1.5,10.9,0.3,16.3,0.8c0.6,0,1.1,0.1,1.6,0.2
										c5.1,1.5,10.3,0.3,15.4,0.8c0.5,0,1.1,0.1,1.6,0.2c5.1,1.4,10.3,0.3,15.4,0.8c0.6,0,1.1,0.1,1.6,0.2
										c5.4,1.5,10.9,0.3,16.3,0.8c0.6,0,1.1,0.1,1.6,0.2c5.1,1.5,10.3,0.3,15.4,0.8c0.6,0,1.1,0.1,1.6,0.2
										c5.1,1.4,10.4,0.3,15.6,0.8c0.6,0,1.1,0.1,1.7,0.2c5.8,1.4,11.6,0.4,17.4,0.7c18.2,0.4,36.3,1.9,54.5,2.8
										c14,0.7,28.1,1.8,42.1,2.2c2.9,0.1,5.7,0,7.7,2.5c0,3.3,0,6.7,0,10c-12.9-0.6-25.8-1.6-38.6-2.8
										c-10.7-1.1-21.5-1.4-32.2-2.2c-17.2-1.2-34.3-2.8-51.5-3.8c-10.3-0.6-20.5-1.4-30.7-2.1c-17.8-1.2-35.7-2.3-53.5-3.9
										c-11.2-1-22.5-1.3-33.7-2.2c-16.3-1.2-32.7-2.6-49-3.9c-10.7-0.8-21.5-1.3-32.2-2.1c-16.8-1.2-33.7-2.8-50.5-3.8
										c-10.3-0.6-20.5-1.4-30.7-2.1c-17.5-1.2-35-2.5-52.5-3.9c-10.4-0.8-20.8-1.4-31.2-2.2c-17.2-1.2-34.4-2.2-51.5-3.9
										c-11-1.1-22.2-1.4-33.2-2.2c-16.8-1.2-33.7-2.7-50.5-3.8c-9.3-0.6-18.5-1.5-27.7-2C789.7,518.1,776.6,516.1,763.3,516.5z"
										/>
									<path class="st58" d="M1452.5,262.7c-33.7,11.5-67.3,23-101,34.5c-20.5,7-41,13.8-61.4,20.8c-36.5,12.5-73,25-109.4,37.5
										c-34.4,11.8-68.9,23.6-103.3,35.4c-35.5,12.2-71.1,24.4-106.6,36.6c-34.3,11.8-68.6,23.5-102.8,35.2
										c-19.7,6.7-39.3,13.6-58.9,20.3c-1.9,0.6-3.8,1-5.8,1.4c5.1-3.6,11.3-4.7,17-6.7c29.5-10.8,59.1-21.2,88.7-31.7
										c45.7-16.2,91.5-32.4,137.2-48.7c27.2-9.7,54.4-19.5,81.7-29.2c47.5-17.1,95.1-34.2,142.6-51.2
										c25.5-9.1,51.1-18.1,76.6-27.2c35.2-12.6,70.3-25.3,105.5-38C1452.5,255.4,1452.5,259.1,1452.5,262.7z"/>
									<path class="st49" d="M1452.5,378.6c-25.9,4.9-51.7,9.9-77.6,14.7c-32.9,6.1-65.8,12.1-98.7,18.3
										c-29.5,5.5-58.9,11.2-88.3,16.7c-37.4,7.1-74.9,14-112.3,21.1c-28.2,5.3-56.3,10.7-84.5,15.9
										c-41.5,7.6-83.1,14.9-124.6,22.4c-23.5,4.2-46.9,8.5-70.4,12.6c-4.7,0.8-9.5,1.5-14.2,2.2c-1.6,0.2-2.9,0.5-3.7,2.1
										c-14,2.2-27.9,4.8-42,6c2.6-3.4,6.2-3.5,10-3c12-1.3,23.8-4,35.7-6.2c19.2-3.6,38.5-6.9,57.6-11
										c20.2-4.3,40.5-8.2,60.7-12.1c41-7.8,82-15.8,123-23.7c25.1-4.8,50.1-9.8,75.1-14.7c38.9-7.5,77.8-14.9,116.7-22.3
										c25.4-4.9,50.7-9.8,76.1-14.7c41.2-7.8,82.4-15.5,123.6-23.3c12.5-2.4,25.1-4.7,37.6-7
										C1452.5,374.6,1452.5,376.6,1452.5,378.6z"/>
									<path class="st59" d="M896.1,533.5c4.6-2.5,9.1,0,13.6,0.3c17.3,1.5,34.5,3.7,51.8,5.7c18.7,2.2,37.4,4.7,56.1,6.8
										c16.1,1.9,32.2,3.3,48.4,5.2c16.1,1.8,32.2,3.9,48.3,5.8c13.1,1.5,26.3,2.7,39.5,4.2c13.8,1.5,27.6,3.3,41.4,4.8
										c13.2,1.5,26.3,2.7,39.5,4.2c13,1.5,25.9,3.2,38.9,4.7c10.2,1.2,20.4,2.2,30.6,3.3c13.8,1.5,27.6,3.2,41.4,4.7
										c13.2,1.5,26.3,2.8,39.5,4.3c13.5,1.5,26.9,3.4,40.4,4.6c9.1,0.8,18,2.7,27.2,2.4c0,2.3,0,4.6,0,7
										c-6.9-1-13.7-2.1-20.6-2.9c-13-1.6-25.9-3.2-38.9-4.7c-12.5-1.5-25-2.9-37.5-4.3c-12.2-1.4-24.3-2.9-36.5-4.4
										c-12.6-1.5-25.3-3.1-37.9-4.6c-15.4-1.9-30.8-3.9-46.3-5.8c-12.2-1.5-24.3-2.8-36.5-4.2c-15.4-1.9-30.9-3.9-46.3-5.7
										c-12.5-1.5-25-2.8-37.5-4.3c-12-1.4-24-2.8-36-4.3c-12.6-1.5-25.3-3.1-37.9-4.7c-15.4-1.9-30.9-3.8-46.3-5.7
										c-12.2-1.5-24.3-2.9-36.5-4.3c-12.5-1.5-24.9-3.1-37.4-4.6c-6.9-0.8-13.8-1.6-20.7-2.3
										C898.5,534.4,897.2,534.6,896.1,533.5z"/>
									<path class="st60" d="M1173.9,539.5c-8.1-1.9-16.5-1.3-24.7-1.8c-22.5-1.5-45-2.2-67.4-4.1c-6.4-0.5-12.9-0.7-19.4-0.9
										c-14.8-0.5-29.4-1.8-44.2-2.4c-17.4-0.7-34.7-2.1-52.1-2.9c-10.9-0.5-21.8-1.7-32.7-1.9c-1.2,0-2.3,0-3.2-1
										c17.8-0.5,35.5,1.7,53.2,2.2c12.2,0.3,24.5,1.3,36.7,1.9c19.4,1,38.7,2.1,58.1,3c12.4,0.6,24.8,1.3,37.2,2
										c19.2,1,38.4,2,57.6,3c18.4,1,36.7,2,55.1,3c19.4,1,38.7,2.1,58.1,3c12.1,0.6,24.2,1.3,36.2,2c19.5,1,39.1,2.2,58.6,3
										c11.9,0.5,23.8,1.3,35.7,2c11.9,0.6,23.8,1.8,35.7,1.9c0,1.3,0,2.7,0,4c-17.6-1.4-35.3-2.1-52.9-3.1
										c-17.3-1-34.6-2.4-51.9-2.9c-4.2-1.1-8.5-0.2-12.7-0.5c-1.8-0.1-3.6,0.5-5.3-0.5c-5.6-1.4-11.4,0.4-17-1
										c-5.6-1.4-11.4,0.4-17-1c-4.2-1.1-8.5-0.2-12.7-0.5c-1.8-0.1-3.6,0.5-5.3-0.5c-5.6-1.4-11.4,0.4-17-1
										c-5.6-1.4-11.4,0.4-17-1c-4.2-1.1-8.5-0.2-12.7-0.5c-1.8-0.1-3.6,0.5-5.3-0.5c-5.6-1.4-11.4,0.4-17-1
										c-5.6-1.4-11.4,0.4-17-1c-4.2-1.1-8.5-0.2-12.7-0.5C1177.4,539.8,1175.6,540.4,1173.9,539.5z"/>
									<path class="st35" d="M720.3,513.5c-1,1.7-2.3,3-4,4c-1,0-2,0-3,0c0.7-0.7,1.3-1.3,2-2c0.5-0.7,1.5-0.4,2-1
										C718.1,513.4,719.2,513.5,720.3,513.5z"/>
									<path class="st36" d="M717.3,514.5c-0.7,0.3-1.3,0.7-2,1c-1,0-2,0-3,0C713.7,514,715.6,514.7,717.3,514.5z"/>
									<path class="st48" d="M746.3,507.5c-3,2.1-7,0.9-10,3c-0.3,0-0.7,0-1,0c-1.2,0.9-2.5,0.5-3.8,0.3c-1-3.1,2.3-1,2.8-2.3
										c0-0.3,0-0.7,0-1c1.7,0,3.3,0,5,0c2.3-0.3,4.3-3.1,7-1C746.3,506.8,746.3,507.2,746.3,507.5z"/>
									<path class="st58" d="M734.3,508.5c-1,0.7-2,1.3-3,2c-0.5,0.7-1.5,0.3-2,1c-0.7,0.3-1.3,0.7-2,1c-0.3,0-0.7,0-1,0
										C727.9,509,731,508.6,734.3,508.5z"/>
									<path class="st51" d="M745.3,514.5c0,0.3,0,0.7,0,1l0,0c-2,0.8-4,0.8-6,0c-3.8,0-7.4-0.7-11-2c2.7,0,5.3,0,8,0
										C739.1,515.5,742.3,514.1,745.3,514.5z"/>
									<path class="st41" d="M739.3,515.5c2,0,4,0,6,0c0,0.3,0,0.7,0,1c-1.3,0-2.7,0-4,0C740.6,516.2,739.9,515.8,739.3,515.5z"/>
									<path class="st10" d="M725.3,519.5c0-0.7,0-1.3,0-2c0.7,0.3,1.3,0.7,2,1c0,0.7,0,1.3,0,2
										C726.6,520.2,726,519.8,725.3,519.5z"/>
									<path class="st39" d="M713.3,520.5c-0.9,1.6-2,2.9-4,3C710.2,521.9,711.3,520.6,713.3,520.5z"/>
									<path class="st22" d="M721.3,515.5c-0.2,1.7,0.5,3.6-1,5c0-1.3,0-2.7,0-4C720.6,516.2,721,515.8,721.3,515.5z"/>
									<path class="st51" d="M746.3,506.5c-2.3,0.3-4.7,0.7-7,1c1-0.7,2-1.3,3-2c4.2-1.8,8.6-2.7,13-4c0.7-0.3,1.3-0.7,2-1
										c0.8,1,1.9,1,3,1c-2.9,2.5-7.1,1.5-10,4C749,506.2,747.7,506.6,746.3,506.5z"/>
									<path class="st58" d="M755.3,501.5c-4,2.4-8.5,3.2-13,4c2.9-2.5,6.6-2.9,10-4C753.3,501.5,754.3,501.5,755.3,501.5z"/>
									<path class="st49" d="M729.3,511.5c0.7-0.3,1.3-0.7,2-1c1.3,0,2.7,0,4,0C733.5,512.2,731.3,511.2,729.3,511.5z"/>
									<path class="st58" d="M794.2,487.5c-1.3,1.5-3,2-5,2C790.5,488,792.3,487.5,794.2,487.5z"/>
									<path class="st56" d="M791.2,516.5c-9.8,0.4-19.5-1.7-29.3-1c-1,0.1-2-0.2-2.7-1c9.8,0,19.5-0.2,29.3,1
										C789.5,515.6,790.5,515.7,791.2,516.5z"/>
									<path class="st59" d="M879.1,531.5c5.2-0.9,10.3-1,15,2C889,533.5,884,532.9,879.1,531.5z"/>
									<path class="st59" d="M821.2,524.5c4.8,0,9.5-0.2,14,2C830.4,526.4,825.8,525.9,821.2,524.5z"/>
									<path class="st59" d="M862.2,529.5c2.4-2,4.2-0.6,6,1C866.1,530.2,863.9,531.2,862.2,529.5z"/>
									<path class="st59" d="M871.2,530.5c2.4-2,4.2-0.6,6,1C875.1,531.2,872.9,532.2,871.2,530.5z"/>
									<path class="st59" d="M854.2,528.5c2.4-1.8,4.1-0.1,6,1C858.2,529.2,855.9,530.2,854.2,528.5z"/>
									<path class="st59" d="M813.2,523.5c2.7,0.4,5.5-0.9,8,1C818.5,524.1,815.7,525.4,813.2,523.5z"/>
									<path class="st59" d="M845.2,527.5c2.4-1.8,4.1-0.1,6,1C849.1,528.5,847,528.6,845.2,527.5z"/>
									<path class="st59" d="M804.2,522.5c2.7,0.4,5.5-0.9,8,1C809.6,523.1,806.7,524.4,804.2,522.5z"/>
									<path class="st59" d="M837.2,526.5c2-1.5,3.4,0.1,5,1C840.4,527.6,838.7,527.4,837.2,526.5z"/>
									<path class="st49" d="M1277.8,545.5c6,0.5,12.1-1.1,18,1C1289.8,545.9,1283.7,547.6,1277.8,545.5z"/>
									<path class="st49" d="M1173.9,539.5c6,0.5,12.1-1.1,18,1C1185.9,540,1179.8,541.6,1173.9,539.5z"/>
									<path class="st49" d="M1225.8,542.5c6,0.5,12.1-1.1,18,1C1237.8,543,1231.7,544.6,1225.8,542.5z"/>
									<path class="st49" d="M1329.7,548.5c6,0.5,12.1-1.1,18,1C1341.7,548.9,1335.6,550.6,1329.7,548.5z"/>
									<path class="st49" d="M1191.9,540.5c5.6,0.6,11.4-1.2,17,1C1203.2,540.9,1197.4,542.7,1191.9,540.5z"/>
									<path class="st49" d="M1243.8,543.5c5.6,0.6,11.4-1.2,17,1C1255.1,543.9,1249.4,545.7,1243.8,543.5z"/>
									<path class="st49" d="M1208.8,541.5c5.6,0.6,11.4-1.2,17,1C1220.2,541.9,1214.4,543.7,1208.8,541.5z"/>
									<path class="st49" d="M1260.8,544.5c5.6,0.6,11.4-1.2,17,1C1272.1,544.9,1266.3,546.7,1260.8,544.5z"/>
									<path class="st49" d="M1295.8,546.5c5.6,0.6,11.4-1.2,17,1C1307.1,546.9,1301.3,548.7,1295.8,546.5z"/>
									<path class="st49" d="M1312.7,547.5c5.6,0.6,11.4-1.2,17,1C1324.1,547.9,1318.3,549.7,1312.7,547.5z"/>
								</g>
							</g>
						</g>
					</g>
				</g>
			</g>
		</g>
	</g>
</g>
</svg>
