<svg id="Calque_1" data-name="Calque 1" xmlns="http://www.w3.org/2000/svg" viewBox="0 0 291.32 543.23"><defs><style>.cls-1{fill:#b5eac2;}.cls-1,.cls-3,.cls-4,.cls-7,.cls-8{stroke:#b66a5c;stroke-miterlimit:10;}.cls-1,.cls-4,.cls-7,.cls-8{stroke-width:2px;}.cls-2{fill:#9ecca9;}.cls-3,.cls-5{fill:#db9c8f;}.cls-3{stroke-width:3px;}.cls-4{fill:#edcdc7;}.cls-6{fill:#ffe9e5;}.cls-7{fill:#ffd2ca;}.cls-8{fill:#ffc775;}.cls-9{fill:#192534;}.cls-10{fill:#ec497b;}.cls-11{fill:#ec4a7b;}</style></defs><title>spring-wrap</title><path class="cls-1" d="M155.91,285.13c18.23-28.07,43.45-33.8,57.62-34.6,10-.57,18.16,8.33,16.14,18.16a26.75,26.75,0,0,1-1.91,5.72c-6.86,15-12.86,30.85-71.13,41.14" transform="translate(-6.29 -13.12)"/><path class="cls-2" d="M224.17,255.13a12.09,12.09,0,0,1,.49,6,24.09,24.09,0,0,1-1.72,5.17c-6.2,13.54-24.94,31.35-64.32,47.72,56.29-10,62.07-25.32,68.69-39.84a25.91,25.91,0,0,0,1.84-5.54A13.81,13.81,0,0,0,224.17,255.13Z" transform="translate(-6.29 -13.12)"/><polyline class="cls-3" points="149.06 323.96 149.62 257.14 150.34 172.48"/><path class="cls-4" d="M261.61,380.52l-219.35.28a7.17,7.17,0,0,0-6.87,8.5L62.79,549.38a7.06,7.06,0,0,0,6.88,6H230.8a7.05,7.05,0,0,0,6.85-5.82l30.81-160.36A7.17,7.17,0,0,0,261.61,380.52Z" transform="translate(-6.29 -13.12)"/><path class="cls-5" d="M260.81,382.75l-42.35.05a7,7,0,0,1,6,8.38L193.89,547.52a7,7,0,0,1-6.79,5.68h43.19a7,7,0,0,0,6.79-5.68l30.54-156.33A7,7,0,0,0,260.81,382.75Z" transform="translate(-6.29 -13.12)"/><path class="cls-6" d="M45.17,384.43a6.94,6.94,0,0,0-6.76,8.17L64.87,546.94a6.89,6.89,0,0,0,6.73,5.77l52.44.14a6.89,6.89,0,0,1-6.73-5.77L90.84,392.74a6.94,6.94,0,0,1,6.76-8.17" transform="translate(-6.29 -13.12)"/><rect class="cls-4" x="1" y="323.22" width="289.32" height="54.87" rx="17.5" ry="17.5"/><path class="cls-6" d="M40,376.31V350.93c0-7.17,6.41-13,14.31-13H23.63c-7.91,0-14.31,5.82-14.31,13v25.38c0,7.18,6.41,13,14.31,13H54.3C46.4,389.3,40,383.49,40,376.31Z" transform="translate(-6.29 -13.12)"/><path class="cls-5" d="M262.4,376.62l0-25.6c0-7.24-6.77-13.11-15.14-13.12l32.47,0c8.37,0,15.15,5.88,15.14,13.12l0,25.6c0,7.24-6.8,13.1-15.17,13.09h-5l-27.45,0C255.61,389.72,262.4,383.86,262.4,376.62Z" transform="translate(-6.29 -13.12)"/><path class="cls-7" d="M185.78,79.51s4.27-53.48,46-38.84C258.17,49.93,261.49,77.8,252,89.32c-6.09,7.42-19.12,14.11-39.85,26.19h0s34.07-31,53.37,8.78c12.23,25.19-5,47.31-19.85,48.84-9.55,1-18.85-.2-40.56-10.69v0s44.69,10.11,26.45,50.36c-11.56,25.5-39.61,26.36-50.25,15.94-6.86-6.72-19.75-19.51-25.56-42.9l-.26.79s-13.76,55-55.46,40.32c-26.42-9.27-29.74-37.14-20.29-48.65,6.09-7.42,13.31-12.75,36.11-20.59l.28-.11s-60.69,29.28-76.47-3.94c-12-25.29,5-47.31,19.85-48.84,9.55-1,19.37.85,41.08,11.33l.38.64S50,98.08,61.53,64.2c9-26.51,37.14-29.74,48.65-20.29,7.42,6.09,13,14.35,20.88,37.15l.15-.31S105.71,36.1,141.87,18.4c25.14-12.31,44,4.45,46.49,19.12C190,46.86,191.2,53.36,186,77.6" transform="translate(-6.29 -13.12)"/><circle class="cls-8" cx="159.91" cy="128.25" r="43.15" transform="translate(22.89 273.01) rotate(-89.1)"/><path class="cls-9" d="M125.42,461.52h59.24s0,29.74-28.55,30.45S125.42,461.52,125.42,461.52Z" transform="translate(-6.29 -13.12)"/><path class="cls-10" d="M133.53,482s10.65-8.93,21.79.26c0,0,10.87-9.61,22.12-.17,0,0-3.94,9.55-21.91,9.82C138.15,492.21,133.53,482,133.53,482Z" transform="translate(-6.29 -13.12)"/><circle class="cls-9" cx="108.07" cy="427.03" r="11.2"/><circle class="cls-9" cx="190.07" cy="427.03" r="11.2"/><circle class="cls-10" cx="203.29" cy="459.07" r="11.2"/><circle class="cls-11" cx="91.12" cy="459.07" r="11.2"/></svg>