<?xml version="1.0" encoding="utf-8"?>
<!-- Generator: Adobe Illustrator 21.0.0, SVG Export Plug-In . SVG Version: 6.00 Build 0)  -->
<svg version="1.1" xmlns="http://www.w3.org/2000/svg" xmlns:xlink="http://www.w3.org/1999/xlink" x="0px" y="0px"
	 viewBox="0 0 482.6 366.5" style="enable-background:new 0 0 482.6 366.5;" xml:space="preserve">
<style type="text/css">
	.st0{fill:#DBDAD6;}
	.st1{fill:#C1BDB6;}
	.st2{fill:#B1A9A7;}
	.st3{fill:#ADA5A3;}
	.st4{fill:#ECEAE8;}
	.st5{fill:#CBE0ED;}
	.st6{fill:#7DA5CD;}
	.st7{fill:none;stroke:#A0C3DD;stroke-width:2;stroke-linecap:round;stroke-linejoin:round;}
	.st8{fill:none;stroke:#A0C3DD;stroke-width:2;stroke-linejoin:round;}
	.st9{opacity:0.7;fill:#7DA5CD;fill-opacity:0.53;enable-background:new;}
	.st10{fill:#DBDAD6;stroke:#757575;stroke-miterlimit:10;}
	.st11{fill:none;stroke:#757575;stroke-miterlimit:10;}
</style>
<g id="tap">
	<path class="st0" d="M121.6,275.2c-0.1-0.2-0.3-0.2-0.5-0.1c-0.4,0.2-0.6,0.4-1,0.7c-1.2,0.8-2,1.6-3.3,2.2l6.1,9.3
		c0.1,0.2,0.1,0.2,0.2,0.4c1.5,4,2.2,9.2,2.4,13.5c0,0,0,0,0,0c1.2,0,2.2-0.6,3.4-0.8c0.8-0.2,1.6-0.2,2.4,0.2
		c0.2-2.5,0.3-5.6-0.2-8.1c-0.4-2.2-1-4.3-1.8-6.3"/>
	<path class="st0" d="M145.1,300.7c0.5-2.2,0.6-4.5,0.4-6.8c-0.5-6-2.1-12-4.7-17.4c-0.3,0.2-1.5-2.9-2.7-5.3
		c-1.6-2.6-8.6-7.2-9.7-6.4c-6.5,0.7-4.7,6.8-5.7,9.4c7.4,4.9,9.9,18.1,10.3,22.3c0.1,1.5,0.1,3,0,4.5c0.2,0.1,0.4,0.2,0.6,0.3
		c1.5,0.3,3.1,0.4,4.6,0.5C140.5,301.7,142.8,301.3,145.1,300.7z"/>
	<path class="st0" d="M123,299.7c-0.3-4.4-1.4-8.6-3.2-12.6c-1.1-2.5-2.6-4.8-4.6-6.8c-0.4-0.5-1-0.6-1.6-0.4
		c-4.3,1.7-8.7,2.9-13.2,3.8c-1.5,0.3-3.1,0.4-4.6,0.4c-4.3,0.2-8.4-2-10.7-5.6c-1.4-2.2-2.6-4.4-3.6-6.8c-0.3-0.8-0.2-1.7,0.3-2.3
		c0.7-0.9,0.7-2.1,0.2-3c-0.8-1.8-0.8-1.8-2.5-0.9c-7.4,3.8-15,7.2-22.8,10.1c-2.6,1-5.2,1.9-7.9,2.8c-0.6,0.2-0.7,0.4-0.4,0.9
		c0.3,0.6,0.5,1.1,0.8,1.7c0.4,1,1.2,1.7,2.3,1.9c3.3,0.8,2.8,0.9,3.9,3.5c1.4,3.1,2.4,6.3,3,9.6c0.1,0.9,0.2,1.7,0.1,2.6
		c-0.1,2.3-0.6,3.2-2.5,5.5c5,3.5,7.7,8.7,9.7,14.2c0.8,2.4,1.4,4.9,1.7,7.4c1.7-0.5,3.4-1,5-1.5c2.7-0.9,5.5-1.7,8.2-2.7
		c4.4-1.7,8.8-3.3,13.1-5.3c2.4-1.1,4.8-2.1,7.2-3.2c2.2-1,4.3-2.1,6.4-3.3c1.7-0.9,3.4-1.9,5.1-2.8s3.3-2.1,4.9-3.1
		s3.3-2.3,4.9-3.5C122.3,300,122.6,299.8,123,299.7z"/>
	<path class="st1" d="M123,299.7c-0.4,0.1-0.7,0.3-0.9,0.6c-1.6,1.2-3.2,2.4-4.9,3.5s-3.2,2.1-4.9,3.1s-3.4,1.9-5.1,2.8
		c-2.1,1.1-4.2,2.2-6.4,3.3c-2.4,1.1-4.8,2.1-7.2,3.2c-4.3,2-8.7,3.6-13.1,5.3c-2.7,1-5.4,1.8-8.2,2.7c-1.7,0.5-3.4,1-5,1.5
		c0,0,0,0.1,0,0.1c0.1,1.5,0.1,1.4,1.6,1.1c3.5-0.8,7.1-1.3,10.6-1.9c4-0.5,8-1.5,11.8-3c2.3-1.2,4.6-2.5,6.8-3.9
		c6-3.3,11.4-7.5,17.1-11.3c2.3-1.6,4.8-2.9,7.4-4c0.4-0.1,0.7-0.5,0.6-0.9C123,301.2,123,300.4,123,299.7z"/>
	<path class="st0" d="M49.1,351.9c-2,1.2-4,2.3-6.2,3.2c-4.7,1.9-9.4,3-14.5,2.2c-0.2-0.1-0.5,0-0.6,0.2c-1,1.1-1.4,2.8-0.8,4.2
		c0.5,1.2,1.6,2,2.9,2.3c2.2,0.5,4.4,0.6,6.6,0.3c4.5-0.6,8.8-1.9,12.9-3.9c0-0.1-0.1-0.1-0.1-0.2c0.4-2.5,0-5,0.1-7.4
		C49.4,352.5,49.6,352,49.1,351.9z"/>
	<path class="st1" d="M49.1,351.9c0.5,0.1,0.3,0.6,0.3,0.9c-0.1,2.5,0.3,5-0.1,7.4c0,0.1,0,0.1,0.1,0.2c3.4-1.4,6.3-3.5,8.7-6.3
		c1.2-1.3,1.7-3.1,1.5-4.8c-0.2-1.3-1.1-2.4-2.3-3c-1.4-0.7-2.1-0.5-3,0.7c-0.8,1.1-1.7,2.1-2.7,2.9
		C50.7,350.6,49.9,351.2,49.1,351.9z"/>
	<path class="st2" d="M66.7,264.5c2.8-1.2,5.6-2.5,8.4-4c-2.1-0.5-4-0.9-6-1.3c-0.9-0.2-1.8-0.1-2.6,0.2c-1,0.5-2,0.8-3,1.2
		c0.3,0.6,0.6,1.1,1,1.5C65.2,263,66.1,263.6,66.7,264.5z"/>
	<path class="st1" d="M145.1,300.7c-2.3,0.7-4.6,1-7,1c-1.6-0.1-3.1-0.2-4.6-0.5c-0.2,0-0.4-0.1-0.6-0.3c0,0.3,0,0.5-0.1,0.8
		c-0.4,0.8,0.1,0.9,0.6,1.1c1.6,0.8,3.2,1.4,4.9,1.9c1.2,0.2,2.4,0.2,3.6,0c0.8-0.2,1.6-0.7,2-1.4
		C144.4,302.5,144.9,301.6,145.1,300.7z"/>
	<path class="st3" d="M65.7,257.6c0.8-0.2,0.8-0.2,0.5-1c-0.5-1.2-0.9-2.4-1.4-3.6c-0.2-0.6-0.5-0.8-1.1-0.4
		c-0.1,0.3-0.4,0.3-0.6,0.4c-1,0.4-2.1,0.8-3.2,1.2c-0.2,0.1-0.5,0.1-0.3,0.4c0.8,1.4,1,3.1,1.7,4.5c1.4-0.5,2.8-1,4.2-1.6
		C65.6,257.6,65.6,257.5,65.7,257.6z"/>
	<path class="st1" d="M131.1,300.5c-0.7-0.3-1.6-0.4-2.4-0.2c-1.2,0.2-2.4,0.3-3.6,0.4c0,1.5,0,1.5,1.4,1.4c1.3,0,2.5,0,3.8,0
		c0.4,0,0.7-0.1,0.7-0.6S131.1,300.8,131.1,300.5z"/>
	<path class="st4" d="M57,255.4c0.1,0.1,0.1,0,0.1-0.1L57,255.4z"/>
	<path class="st0" d="M64.5,319.9c0,0-18.9,24.8-19.9,32.5c0,0-10.5,3.9-15.5,2.7c0,0,0.8-1.9-1.9-9c-2.7-7-3-13-0.4-18.3
		s8.3-12.1,12.5-13.5l5.1-3.4l9.7-5.9c0,0,3.7,1.9,6.3,6.7C62.9,316.5,64.5,319.9,64.5,319.9z"/>
	<path class="st0" d="M63.5,260.5l-8.3,3.2c0,0-2.6,5-3.4,5.8s3.7-0.2,5.9-1c2.1-0.7,10.1-4.4,10.1-4.4L63.5,260.5"/>
	<polygon class="st0" points="59.7,254.1 52.5,257.1 54.1,262.1 61.4,259.3 	"/>
	<path class="st1" d="M64.5,319.9c-2.9,1.1-5.6,2.9-7.8,5.2c-1.9,1.7-3.6,3.6-5.1,5.6c-0.8,1.2-1.6,2.4-2.3,3.6c-1,2-2,4-2.9,6.1
		c-0.9,2.1-1.6,4.3-2.1,6.6c-0.2,1.5-0.3,3-0.3,4.5c0,0.3,0,0.8,0.5,1c2.7-1.2,5.1-2.9,7.2-4.9c0.4-0.4,0.8-0.8,1.1-1.2
		c0.8-0.7,1.1-1.8,0.7-2.8c-1.2-3.9,0.1-7.1,3-9.8c2.1-1.9,4.5-3.5,7.1-4.8l0.8-0.4c1.5-0.8,1.5-0.8,1.3-2.5
		C65.5,323.9,65.1,321.9,64.5,319.9z"/>
</g>
<g id="reservoir">
	<path class="st5" d="M151.1,154.1c32.8-4.1,65.9-4,98.7,0.2c11.7,1.5,23.5,3.6,35.3,2.8c10.2-0.7,20.2-3.6,30.5-4
		c20-0.9,39.3,7.5,59.3,9.3c21.6,1.9,44-9.7,65.2-5.2c10.4,2.2,19.5,0.2,29.9-2c4.2,107.4-71.6,181.1-160,181.1
		c-114.4-8.5-160-78.2-160-181.1"/>
	<path class="st6" d="M180.6,271.4c52.6,68.7,130.1,64.2,130.1,64.2c88.3,0,164.2-73.7,160-181.1h-0.4c-7,94.2-78,157-159.5,157
		C310.7,311.5,237.7,315.1,180.6,271.4"/>
	<polygon class="st5" points="138,271.1 146.6,291 186.1,266.7 173,247.1 	"/>
	<path class="st7" d="M138.8,269.9c10.9-6.2,18.7-11.2,28.8-18.7l-10-27.3c-3.3-14.5-7.6-34-7.6-49.9c0-89.6,71.6-162.2,160-162.2
		s160,72.6,160,162.2S398.4,336.2,310,336.2c-36.8,0-64.8-10.9-94.2-29.7c0,0-16-9-35.5-34c-0.7-1-2.1-1.2-3.1-0.6
		c-7.2,4.5-26.7,16.6-30.7,19.1"/>
	<path class="st8" d="M132.3,264.5c13.4-4.3,24.6-16.5,24.6-16.5c-1.4-3.3-5.5-12.5-6.7-16c-6.5-18.6-9.9-38.2-9.9-57.9
		C140.3,78.5,216.7,1,311,1s170.7,77.5,170.7,173S405.2,347,311,347c-43.9,0-79.9-14.5-111.2-41.8c-3.3-2.9-18.7-17.4-21.8-20.5
		c-1.3-1.3-3.1,0.2-3.1,0.2s-17.4,11-29.8,16.9"/>
	<path class="st9" d="M429.1,189.7c4.7,8.4,1.7,19-6.7,23.7c-7.3,4.1-16.4,2.4-21.8-3.9c4.7,8.4,15.3,11.5,23.7,6.9
		c8.4-4.7,11.5-15.3,6.9-23.7C430.6,191.6,429.9,190.6,429.1,189.7z"/>
	<path class="st9" d="M340.7,253.1c4.7,8.4,1.6,19.1-6.9,23.7c-7.2,4-16.2,2.4-21.6-3.9c4.7,8.4,15.3,11.5,23.7,6.9
		c8.4-4.7,11.5-15.3,6.9-23.7C342.3,255,341.6,254,340.7,253.1L340.7,253.1z"/>

		<ellipse transform="matrix(0.3699 -0.9291 0.9291 0.3699 -39.2581 470.9394)" class="st9" cx="327.6" cy="264.4" rx="17.5" ry="17.5"/>

		<ellipse transform="matrix(0.3699 -0.9291 0.9291 0.3699 75.2843 513.1525)" class="st9" cx="416" cy="201.1" rx="17.5" ry="17.5"/>

		<ellipse transform="matrix(0.3699 -0.9291 0.9291 0.3699 -63.5028 348.7785)" class="st9" cx="225.4" cy="221.2" rx="17.5" ry="17.5"/>
	<path class="st9" d="M238.6,209.8c4.7,8.4,1.7,19-6.7,23.7c-7.3,4.1-16.4,2.4-21.8-3.9c4.7,8.4,15.3,11.5,23.7,6.9
		s11.5-15.3,6.9-23.7C240.1,211.8,239.4,210.8,238.6,209.8L238.6,209.8z"/>
</g>
<g id="borders">
	<path class="st10" d="M43.8,225.5 M42.3,225.4c-0.5,0.3,1-0.9,2-1.3c2.1-1.2,4.5-1.9,7-1.8c3.4,0.3,6.5,1.8,8.8,4.3
		c0.8,0.8,1.1,0.1,3.4-0.9c2.6-1,5-2.4,7.3-4c3.6-2.6,7.1-5.3,10.6-8c1.9-1.5,4.3-2.3,6.7-2.1c3.8,0.4,7.1,2.6,8.9,6
		c0.7,0.9,1,2,1,3.1c-0.2,2.6-1.5,5-3.4,6.8c-1.9,1.7-4.3,2.8-6.8,3.2c-2.7,0.5-5.4,0.6-8.1,0.5c-5.5-0.1-10.9,0.4-15.9,3
		c-0.3,0.1-0.5,0.4-0.5,0.8c0,1.3-0.1,2.6-0.5,3.8c-0.8,2.5-2.3,4.8-4.4,6.4c-0.3,0.2-0.4,0.5-0.2,0.8c0.7,1.9,1.5,3.7,2.2,5.6
		c0.2,0.4,0.3,0.5,0.7,0.3c1.2-0.5,2.5-1,3.8-1.5c0.4-0.2,0.7-0.1,0.8,0.4c0.5,1.4,1.1,2.9,1.5,4.3c0.4,1.5,1,2.2,2.4,2.4
		c0.3,0,0.6,0.1,0.9,0.1c3.8,1,7.4,1,11-0.7c0.8-0.4,1.2-0.2,1.9,0.7c0.8,1.2,1.3,2.4,1.6,3.8c0.2,0.5,0,1.1-0.6,1.3c0,0,0,0,0,0
		c-0.4,0.2-0.7,0.5-1.1,0.7c-0.3,0.1-0.4,0.4-0.3,0.7c0,0.1,0.1,0.1,0.1,0.1c0.3,0.5,0.4,1,0.7,1.5c0.7,1.3,0.9,2.5-0.2,3.7
		c-0.5,0.6-0.6,1.5-0.2,2.2c0.5,1.3,1.2,2.6,1.9,3.8c1.4,2.5,3.6,4.5,6.2,5.6c2.3,0.8,4.7,1,7.1,0.7c3.5-0.5,6.9-1.2,10.3-2.3
		c2.7-0.7,5.3-1.9,7.8-3.3c2.3-1.2,4-3.5,4.4-6.1c0.2-0.9,0.4-1.8,0.7-2.7c0.3-1.2,1.1-2.3,2.2-3c1.5-1,3.3-1.6,5.2-1.6
		c2.7,0,5.3,1,7.2,2.9c2.7,2.5,4.8,5.5,6.2,8.9c2,4.4,3.6,9,4.6,13.7c0.9,3.6,1.1,7.4,0.5,11.1c-0.2,1.8-1,3.6-2.1,5
		c-1.9,2.2-4.4,2.7-7.1,2.3c-2.1-0.4-4.1-1.1-6-2c-2.7-1.2-5.7-1.3-8.5-0.5c-3.3,1.2-6.3,2.8-9,5c-3.1,2.3-6.2,4.5-9.5,6.5
		s-6.3,3.9-9.4,5.9c-2.9,1.8-6.1,3.1-9.4,3.8c-4.1,0.9-8.2,1.6-12.3,2.2c-4.7,0.6-9.2,2.4-13.1,5c-2.1,1.3-3.9,3-5.3,5
		c-1.2,1.6-1.4,3.7-0.5,5.4c0.1,0.3,0.4,0.5,0.7,0.6c2.4,0.3,4.5,2,5.2,4.3c0.8,3,0,6.1-2.2,8.3c-2.8,3.4-6.6,5.4-10.6,7.1
		c-2.5,1.1-5.1,1.9-7.8,2.4c-4.2,0.8-8.3,1.2-12.3-0.1c-2.9-0.9-5.2-5.9-2.3-8.6c0.7-0.7,1-1.8,0.9-2.8c-0.3-1.9-0.8-3.7-1.5-5.5
		c-1.2-3-2-6.1-2.7-9.3c-1.4-8.2,1.4-14.9,7.2-20.6c0.6-0.7,0.4-0.3,1.3-1.3c1.8-1.7,3.7-3.3,5.7-4.6c5.3-3.7,10.9-7,16.6-10
		c1.4-0.7,2.4-2,2.7-3.5c0.3-1.8,0.2-3.7-0.4-5.5c-0.9-2.9-2-5.8-3.3-8.5c-0.1-0.3-0.3-0.4-0.6-0.5c-1-0.3-2-0.7-3-1.1
		c-0.5-0.2-0.9-0.6-1.1-1.1c-0.4-1-0.9-2-1.5-3c-0.1-0.3-0.4-0.4-0.7-0.3c0,0-0.1,0-0.1,0.1c-0.8,0.3-1.6,0.1-2.1-0.6
		c-0.3-0.4-0.5-0.9-0.7-1.4c-0.3-0.9-0.5-1.8-0.7-2.6c-0.2-0.8,0.2-1.6,0.9-1.9c0.7-0.3,1.4-0.6,2.2-0.7c0.5-0.1,1-0.3,1.4-0.6
		c2.8-2,5.2-4.3,6.2-7.8c0.1-0.3,0.1-0.7,0-1c-0.8-2.1-1.5-4.1-2.3-6.2c-0.2-0.4-0.1-0.6,0.3-0.7c1.3-0.5,2.5-1,3.8-1.4
		c0.4-0.2,0.5-0.4,0.2-1c-0.9-1.7-1.5-3.4-2-5.2c-0.1-0.4-0.3-0.5-0.7-0.5c-0.8,0.1-1.6,0.1-2.5,0.1c-3.2-0.3-6.2-1.7-8.5-4
		c-0.2-0.2-0.5-0.3-0.8-0.2c-3.8,0.7-7.4,2.3-10.5,4.6c-2.9,2-5.5,4.3-8.4,6.3c-2.2,1.5-4.7,2.7-7.3,3.3c-2.1,0.4-4.3,0.1-6.3-0.9
		c-2.9-1.1-4.8-4-4.7-7.1c0.3-2.4,1.1-4.7,2.4-6.7c1.2-2.1,3.3-3.6,5.6-4c3-0.6,6-0.8,9-0.6c5.1,0.1,10.1-0.5,15-1.8
		c1.9-0.5,2.7-0.3,2.6-1.2c-0.1-2.2,0.4-4.4,1.5-6.3c0.7-1.6,1.9-3,3.3-4 M46.8,224.5 M58.3,260.5l3.1-1.2c1.4-0.5,2.8-1,4.2-1.6
		l0.1,0c0.8-0.2,0.8-0.2,0.5-1c-0.5-1.2-0.9-2.4-1.4-3.6c-0.2-0.6-0.5-0.8-1.1-0.4c-2.2,0.8-4.5,1.6-6.7,2.6l-0.1,0.1l-0.3,0.1
		l-4.3,1.6c-0.5,0.2-0.3,0.2,0.8,3c0.2,1,0.5,1.3,0.8,2c0,0,0.1,0,0.1,0.1C55.5,261.7,56.9,261.2,58.3,260.5L58.3,260.5z M59.7,262
		c-1.5,0.6-3,1.2-4.5,1.7c-0.2,0.1-0.4,0.3-0.5,0.5c-0.3,0.6-0.6,1.2-0.8,1.9c-0.6,1.6-1.6,3.1-2.8,4.2c1.9-0.5,3.8-1.1,5.6-1.8
		c1.1-0.3,2.2-0.7,3.3-1.2c2.3-1,4.6-1.9,6.8-2.9c2.8-1.2,5.6-2.5,8.4-4c-2.1-0.5-4-0.9-6-1.3c-0.9-0.2-1.8-0.1-2.6,0.2
		c-1,0.5-2,0.8-3,1.2L59.7,262z M125.1,300.3c0,0.1,0,0.2,0.1,0.3c0,1.5,0,1.5,1.4,1.4c1.3,0,2.5,0,3.8,0c0.4,0,0.7-0.1,0.7-0.6
		s0-0.7,0.1-1c0.2-2.5,0-5.1-0.5-7.6c-0.4-2.2-1-4.3-1.8-6.3c-0.1-0.3-0.2-0.6-0.4-0.9c-0.1-0.3-0.2-0.5-0.3-0.8
		c-1.3-3.6-3.6-6.8-6.6-9.2c-0.3-0.2-0.6-0.2-0.9,0c-1.3,1-2.7,2-4.2,2.9c2.5,2.7,4.5,5.7,6,9l0.1,0.3l0.2,0.4
		C124.1,292.1,124.9,296.2,125.1,300.3L125.1,300.3z M32.6,319c-2,1.9-4.2,4.5-5.6,6.9c-2.6,4.7-3.2,10.2-1.7,15.3
		c0.8,2.8,1.8,5.6,2.6,8.4c0.6,1.8,1,3.6,1.1,5.5c0,0.5,0.2,0.7,0.7,0.7s1.2,0,1.8,0l0,0l0,0l0.4,0c1.6,0,3.2-0.2,4.8-0.7
		c1.1-0.2,2.1-0.5,3.2-0.8c1.6-0.5,3.2-1.1,4.7-1.9c2.7-1.2,5.1-2.9,7.2-4.9c0.4-0.4,0.8-0.8,1.1-1.2c0.8-0.7,1.1-1.8,0.7-2.8
		c-1.2-3.9,0.1-7.1,3-9.8c2.1-1.9,4.5-3.5,7.1-4.8l0.8-0.4c1.5-0.8,1.5-0.8,1.3-2.5c-0.2-2-0.7-4-1.3-6c-1.6-5-3.8-9.7-7.7-13.4
		c-0.3-0.3-0.6-0.5-0.9-0.7c-0.1-0.1-0.1-0.3-0.3-0.2l0,0c-0.4-0.4-0.9-0.8-1.4-1.1c-0.2-0.1-0.4,0-0.5,0.1c-4.8,2.9-9.7,5.7-14.4,9
		C37,315.3,34.7,317.1,32.6,319 M32.6,319 M42.9,355.1c-4.7,1.9-9.4,3-14.5,2.2c-0.2-0.1-0.5,0-0.6,0.2c-1,1.1-1.4,2.8-0.8,4.2
		c0.5,1.2,1.6,2,2.9,2.3c2.2,0.5,4.4,0.6,6.6,0.3c4.5-0.6,8.8-1.9,12.9-3.9c3.4-1.4,6.3-3.5,8.7-6.3c1.2-1.3,1.7-3.1,1.5-4.8
		c-0.2-1.4-1.1-2.5-2.4-3.1c-1-0.5-2.2-0.1-2.9,0.8c-0.8,1.1-1.7,2.1-2.7,2.9c-0.8,0.7-1.6,1.3-2.5,2
		C47.1,353.1,45,354.2,42.9,355.1L42.9,355.1z M140.3,275.6c-1.8-3.8-4.1-7.2-7.5-9.7c-1.6-1.1-3.6-1.5-5.6-1.1
		c-1.6,0.3-2.9,1.6-3.2,3.2c-0.4,1.4-0.8,2.8-1.2,4.3c-0.1,0.2-0.1,0.4-0.2,0.5c-0.2,0.4-0.5,0.9-0.4,1.2s0.7,0.5,1,0.8
		c2.3,1.8,4.1,4,5.4,6.6c0.5,0.9,0.9,1.9,1.4,2.8c1.6,3.9,2.5,8,2.9,12.2c0.1,1.5,0.1,3,0,4.5c0,0.3,0,0.5-0.1,0.8
		c-0.4,0.8,0.1,0.9,0.6,1.1c1.6,0.8,3.2,1.4,4.9,1.9c1.2,0.2,2.4,0.2,3.6,0c0.8-0.2,1.5-0.6,2-1.3c0.6-0.8,1-1.7,1.2-2.7
		c0.5-2.2,0.6-4.5,0.4-6.8c-0.5-6-2.1-12-4.7-17.4l-0.2-0.5C140.4,275.8,140.4,275.7,140.3,275.6L140.3,275.6z M67.3,325.8
		c0.1,1.5,0.1,1.4,1.6,1.1c3.5-0.8,7.1-1.3,10.6-1.9c4-0.5,8-1.5,11.8-3c2.3-1.2,4.6-2.5,6.8-3.9c6.8-3.8,12.9-8.7,19.5-12.8
		c1.6-1,3.3-1.8,5.1-2.5c0.4-0.1,0.7-0.5,0.6-0.9c-0.1-0.8-0.1-1.5-0.1-2.2c-0.3-4.4-1.4-8.6-3.2-12.6c-1.1-2.5-2.6-4.8-4.6-6.8
		c-0.4-0.5-1-0.6-1.6-0.4c-4.3,1.7-8.7,2.9-13.2,3.8c-1.5,0.3-3.1,0.4-4.6,0.4c-4.3,0.2-8.4-2-10.7-5.6c-1.4-2.2-2.6-4.4-3.6-6.8
		c-0.3-0.8-0.2-1.7,0.3-2.3c0.7-0.9,0.7-2.1,0.2-3.1c-0.5-0.9-1.6-1.3-2.6-0.8c0,0,0,0,0,0c-8.7,4.5-17.8,8.4-27.1,11.6
		c-0.9,0.3-2.7,0.9-3.6,1.2c-0.5,0.2-0.6,0.4-0.3,0.9c0.3,0.6,0.5,1.1,0.8,1.7c0.4,1,1.2,1.7,2.3,1.9c3.3,0.8,2.8,0.9,3.9,3.5
		c1.5,3.2,2.5,6.6,3,10.1c0.1,0.6,0.1,1.2,0.1,1.8c-0.1,2.5-0.5,3.4-2.5,5.8c5,3.5,7.7,8.7,9.7,14.2c0.8,2.4,1.4,4.9,1.8,7.5
		C67.3,325.7,67.3,325.7,67.3,325.8z"/>
	<path class="st11" d="M40.4,243.6c0,0,1.9-5.7-2.5-8.1"/>
	<path class="st11" d="M60.1,226.6c0,0-1.4,7.6,3.7,7.7"/>
</g>
<g id="shadow">
	<path class="st1" d="M78.1,230.8c-1.5,0,3.9,0.2,8.3-0.3c4.3-0.5,5.6-1.8,7.2-2.8s2.5-2.8,3.4-4.8c0.9-2,0.2-3.7,0.2-3.7
		S96.1,230.7,78.1,230.8z"/>
	<g id="Calque_4">
		<path class="st1" d="M28.6,248.5c0,0-20.7,15.2-24.8,1.4c0,0-0.5,2.3,1.1,4c0,0,1.7,2.6,4.5,3.2c2.6,0.6,4.2,0.7,6.9-0.4
			c3-1.2,5.4-2.6,8.1-4.9"/>
	</g>
</g>
</svg>
