<?xml version="1.0" encoding="utf-8"?>
<!-- Generator: Adobe Illustrator 21.1.0, SVG Export Plug-In . SVG Version: 6.00 Build 0)  -->
<svg version="1.1" xmlns="http://www.w3.org/2000/svg" xmlns:xlink="http://www.w3.org/1999/xlink" x="0px" y="0px"
	 viewBox="0 0 1861 1108" style="enable-background:new 0 0 1861 1108;" xml:space="preserve">
<style type="text/css">
	.st0{fill:#B5EAC2;stroke:#3C7F4D;stroke-width:2;stroke-miterlimit:10;}
	.st1{fill:#9ECCA9;}
	.st2{fill:#FFFFFF;stroke:#3C7F4D;stroke-width:2;stroke-miterlimit:10;}
	.st3{fill:#FFFFFF;stroke:#3C7F4D;stroke-width:2;stroke-linecap:round;stroke-linejoin:round;stroke-miterlimit:10;}
	.st4{fill:#C3E1FF;stroke:#68B2FD;stroke-width:3;stroke-miterlimit:10;}
	.st5{fill:#F0F8FF;}
	.st6{fill:#192534;}
	.st7{fill:#EA4C7D;}
	.st8{fill:#EC497B;}
	.st9{fill:#EC4A7B;}
</style>
<g id="_x36_">
	<g>
		<path id="Montagne_7_1_" class="st0" d="M1839.4,830.5l-195.5-359l-21.2-36.6c0,0-22.3-37.8-24.7-41.4s-17.3-25.4-17.3-25.4
			s-3.3-3.6-7.3-3.2c-3,0.3-6.3,4.3-7.7,6.2c-0.3,0.4-0.8,0.2-0.9-0.3c-0.2-1.1-0.5-2.5-1.2-2.4c-1,0.1-346.7,458.9-346.7,458.9
			L1839.4,830.5z"/>
		<path class="st1" d="M1365.2,817.2c0,0,178.8-248,266.8-364.2c-4.1-6.9-33-57.3-33.8-58.6c-2.3-3.6-17.3-25.4-17.3-25.4
			s-3.3-3.6-7.3-3.2c-3,0.3-6.3,4.3-7.7,6.2c-0.3,0.4-0.8,0.2-0.9-0.3c-0.2-1.1-0.5-2.5-1.2-2.4c-1,0.1-346.7,458.9-346.7,458.9"/>
	</g>
</g>
<g id="_x32_">
	<g id="_x32_Montagne_5">
		<g>
			<path id="Montagne_5_2_" class="st0" d="M1662.5,779.9c-0.7-2.6-4-5.7-5.6-7.8c-4.8-6.3-9.6-12.5-14.5-18.7
				c-7-8.9-13.9-17.8-20.9-26.6c-8.3-10.5-16.6-21-25-31.5c-8.8-11.1-17.7-22.2-26.5-33.4c-8.5-10.7-17.1-21.5-25.7-32.2
				c-7.4-9.3-14.9-18.7-22.3-28c-7.7-9.6-15-19.5-22.7-29.1c-6-7.4-12.8-14-19.1-21c-6.6-7.3-12.1-15.4-17.9-23.4
				c-9-12.6-18.1-25.1-27.1-37.7c-6.3-8.7-12.5-17.4-18.8-26.1c-0.4-0.6-0.8-1.1-1.2-1.7l-70.8-99c0,0-51-69-56-78s-69-84-69-84
				l-39-45c0,0-31-33-36-40s-19-19-19-19s-58-62-61-63s-43,32-43,32s-46,32-48,33s-29,25-29,25l-20,19c0,0-30,27-33,29s-21,21-23,24
				S847,219.4,847,219.4L235.6,760L1662.5,779.9z"/>
			<path class="st1" d="M433,750l577-507c0,0,19.5-19.5,21.5-22.5s20-22,23-24s33-29,33-29l20-19c0,0,27-24,29-25
				c0.9-0.4,4.2-4.4,14.5-11.5c-17-18.1-80.8-86.3-83-87c-3-1-33.5,35.5-33.5,35.5s-46,32-48,33s-29,25-29,25l-20,19
				c0,0-30,27-33,29s-21,21-23,24S860,213,860,213L253,748"/>
		</g>
	</g>
	<g id="_x32__1_">
		<path id="Crête_5_1_" class="st2" d="M1176.5,374.5c0,0,33-14,34-14s10-3,10-3s14-6,15-6s4,0,4,1s10,11,10,11l11,16c0,0,6,6,8,9
			s4,5,4,5s8,8,9,8S1351,373,1351,373l-48-77l-61-80.8l-63.3-74L1123.2,82l-54.7-56.5l-85,60.7l-41.1,34.1L903.2,157l-30.7,30.5
			l-37.2,36.4L778,277l6,3c0,0,21,19,23,20c0,0,2.5,1.5,4.5,1.5s33-16,35-16s5,2,5,2s12,18,15,22l40,57l10,13c0,0,9,14,9,16
			L1176.5,374.5z"/>
	</g>
</g>
<g id="_x31_">
	<g id="_x31_Montagne_6">
		<g>
			<path id="Montagne_6_2_" class="st0" d="M1713.5,829c-3-2-83-105-84-107s-28-31-28-31l-86-122c0,0-29-41-36-41s-50,44-50,44
				l-230,250L1713.5,829z"/>
			<path class="st1" d="M1312,821l202.5-220.5c0,0,4.3-3.5,12.5-11.5c-9.1-12.1-43.4-60-48-60c-7,0-47.5,41.5-47.5,41.5l-230,250"/>
		</g>
	</g>
	<g id="_x31__x3C_Groupe_x3E__1_">
		<path id="Crête_6_2_" class="st2" d="M1367,650c0,0,16,16,24,19s40-20,53-19c0,0,10,3,16,9s27,20,27,20s23,25,25,25s5,1,7,0
			s62-40,62-40l-94-131.8c-1.7-2.4-4.7-3.7-7.5-2.7c-8.1,2.7-22.5,15.5-25.5,18.5c-3.5,3.5-70.5,75.3-88.1,94.3
			C1363.7,644.6,1364.3,648.3,1367,650L1367,650z"/>
	</g>
</g>
<g id="_x33__1_">
	<g id="_x33_">
		<path id="Montagne_3_2_" class="st0" d="M32,830c-2,0,229.3-233.4,230.9-234.7c9.4-8.1,31-26.6,35.7-31.8
			c6.1-6.6,31.2-33.7,39.9-40.7c8.7-7,47.3-41.6,47.3-41.6s17.4-15.1,21.8-19.3c4.4-4.2,31-27.6,31-27.6s38.4-30.8,48.3-40.7
			c9.8-9.8,46.6-36,55.7-36.5c9.1-0.6,33.4,36,73.7,75.1C652.7,467.6,1022,830,1022,830H32z"/>
		<path id="Ombre_2_" class="st1" d="M145,829.8c-2,0,207.3-203.2,208.9-204.5c9.4-8.1,31-26.6,35.7-31.8
			c6.1-6.6,31.2-33.7,39.9-40.7s47.3-41.6,47.3-41.6s17.4-15.1,21.8-19.3c4.4-4.2,31-27.6,31-27.6s38.4-30.8,48.3-40.7
			c1.9-1.9,2.6-2.9,6.2-5.8c-15.4-17.6-43.2-51.1-48.4-50.7c-9.1,0.6-45.9,26.7-55.7,36.5s-48.3,40.7-48.3,40.7s-26.7,23.5-31,27.6
			c-4.4,4.2-21.8,19.3-21.8,19.3s-38.6,34.6-47.3,41.6s-33.9,34.1-39.9,40.7c-4.7,5.1-26.2,23.7-35.7,31.8
			C254.3,606.6,30,828.7,32,828.8"/>
	</g>
	<g>
		<path id="Crête_3_1_" class="st2" d="M416.5,455.3c0,0,22.4,23.6,25.8,24.6s5.7,2.7,9.4,1c3.7-1.7,1.3-4.4,8-1.7
			c6.7,2.7,37.5,30.5,48.6,32.1s30.5-21.4,30.5-21.4s12.4-13.4,17.4-13.7c5-0.3,45.9,31.1,55.9,32.8c10,1.7,19.4-3,25.8-9
			c6.4-6,24.7-19.7,24.7-19.7L546,358.5c-2-2-5.2-2.4-7.6-0.8c-12.1,8-47.1,31.4-57.9,41.9C469.3,410.6,416.5,455.3,416.5,455.3z"/>
	</g>
</g>
<g id="_x34_">
	<g id="Montagne_4_1_">
		<g>
			<path id="Montagne_4_2_" class="st0" d="M1406.7,828.6c-12.4-21.9-223-379.3-226.1-384.8c-3.6-6.2-92.7-134.2-96.7-135.1
				c-4-0.9-23.7,14.7-23.7,14.7s-47.3,50.4-62.9,63.3s-82,85.6-82,85.6L629,830L1406.7,828.6z"/>
			<path class="st1" d="M772,828.2l248.3-301.9c0,0,66.4-72.7,82-85.6c8-6.6,35.7-26.3,49.7-40.7c-16.1-22.5-65.5-91.7-67-92
				c-4-0.9-36,24-36,24s-42.1,52.8-59,64c-15,10-83,84-83,84L632,828"/>
		</g>
	</g>
	<g>
		<path id="Crête_4_2_" class="st2" d="M867,532l10.9,6.7c0,0,2.9,0,5-0.8c2.1-0.8,10.4-6.3,10.4-6.3s4.4-3.1,7.1-3.4
			c2.6-0.3,6.5,0,10.7,3.7c4.2,3.7,15.9,16.7,15.9,16.7s6.3,7.1,9.7,11c3.4,3.9,11,13.1,11,13.1s7.1,5.1,9.9,7c0,0,2,2,3,2s7-2,7-2
			l9-4l3-1l8-3l16-9l73-38l30-13c0,0,1,0,4,2s33,28,33,28l28,21c0,0,9,7,14,8c0,0,5,1,7,1s41-21,43-24s5.5-6.5,5.5-6.5
			s-145.5-240.5-160.5-237.5S949,436,949,436L867,532z"/>
	</g>
</g>
<g id="_x35_">
	<g id="Montagne_1_1_">
		<g>
			<path id="Montagne_1_3_" class="st0" d="M697.3,828.7c0,0-44.9-43.7-49.2-47.8c-4.3-4.1-26.2-28.2-30.1-32
				c-3.8-3.8-17.8-19.5-20.2-21.4s-13.3-14.6-13.3-14.6s-15.3-17.4-22.5-16.5c-7.2,1-20.7,27.3-23.1,31.8
				c-2.4,4.5-64.8,101.4-64.8,101.4L697.3,828.7z"/>
			<path class="st1" d="M507,829c0,0,59.4-91.8,62-96c1.5-2.4,12.5-14.6,18-22c-5.1-4.6-25.8-12.4-30-10c-7,4-16.4,24.8-19,29
				c-2.6,4.2-62,99-62,99H507z"/>
		</g>
	</g>
	<g>
		<path id="Crête_7_1_" class="st3" d="M1573.1,360.8c2.8,0.1,7.9,4,9.4,5.4c0.3,0.3,0.5,0.6,0.8,0.9l32.2,55
			c1.9,2.6,0.5,6.6-1.9,8.6l-22.4,18.7c-0.3,0.2-0.6,0.5-1,0.6c-1.9,0.9-8.3,4-10.1,3.2c-2.1-0.9-22.7-14.4-25-16.4
			c-2.2-2-7.2-10.5-10.3-11.3c-3.1-0.8-9.7,3.4-11.5,4.7c-1.2,0.8-4.3,0.8-6.5,0.7c-1.4-0.1-2.7-0.7-3.7-1.8l0,0
			c-1.9-2.2-2.1-5.6-0.3-7.9c10.1-13.1,41.2-52.7,41.9-53.5c0.2-0.2,0.9-1.2,1.1-1.2C1565.8,366.4,1568.6,360.6,1573.1,360.8z"/>
	</g>
	<g>
		<path id="Crête_7_3_" class="st3" d="M563.6,696.7c-3.9,1.3-8.7,6.3-8.7,6.3c-0.2,0-0.6,1-0.8,1.3C553.6,705.3,527,745,519,759
			c-1.3,2.4,6.8,8.7,9,10.4l0,0c1.1,0.9,2.4,1.3,3.7,1.1c2-0.2,4.8-0.8,5.7-1.7c1.4-1.6,6.6-6.6,9.5-6.4c2.9,0.2,9,7.5,11.4,9
			c2.4,1.5,23.5,11,25.5,11.5c1.8,0.4,7-3.5,8.5-4.7c0.3-0.2,0.5-0.5,0.8-0.8l16.8-21.4c1.8-2.2,6.4-8,4.2-10.2l-40.5-43.8
			c-0.1-0.1-0.1-0.2-0.2-0.2C572.3,701.1,566.3,695.9,563.6,696.7z"/>
	</g>
</g>
<g id="Lac">
	<g id="Lac_3_">
		<path id="Lac_2_" class="st4" d="M614,830c-5,29,27,106,71,123c42.2,16.3,111.4,29,152.9,29.1c0.5,0-1.4,0.7-1.9,0.8
			c-12.2,2.4-42.2,10.1-39,26.1c4,20,32,62,149,79s166-8,172-12s5-17,5-17s5.5-25.5-39.8-35.4c-0.4-0.1,4.7-0.7,5.1-0.8
			c18.5-3,224.5-36.7,263.7-76.8c40.4-41.4-33.3-114.4-35-116H614z"/>
	</g>
	<g id="Gel">
		<path class="st5" d="M945.2,830.3L885,1074c0,0-47.5-16.5-72-37.8c-24.5-21.3-10.9-40.8-10.9-40.8l34.4-14.9l-43.1-0.3l-37.1-8.7
			l45.8-141.7L945.2,830.3z"/>
		<polygon class="st5" points="1022.4,829.9 964.9,1090 1065,1088.3 1120.5,829.2 		"/>
		<polygon class="st5" points="1198.2,834 1169,1008 1198.7,1001.9 1224,833 		"/>
		<polygon class="st5" points="1193.5,834 1181.9,906.8 1166,1006 1166,1006 1195.5,834 		"/>
		<polygon class="st5" points="794.7,831 749,972 749,972 796.7,831.3 		"/>
	</g>
</g>
<g id="Visage">
	<g>
		<path class="st6" d="M1084.8,241h-77.6c0,0,0-39,37.4-39.9C1082,200.2,1084.8,241,1084.8,241z"/>
		<path class="st7" d="M1007.2,241c0,0,21.6-22.7,36.3-14c1.3,0.8,2.8,1.3,4.3,1.4c6.6,0.4,25.1,2.5,37,12.6c0,0-15.7-0.4-39.2,0
			C1022.9,241.3,1007.2,241,1007.2,241z"/>
		<circle class="st6" cx="992.7" cy="173.1" r="14.7"/>
		<circle class="st6" cx="1100.2" cy="173.1" r="14.7"/>
		<circle class="st8" cx="1117.5" cy="215.1" r="14.7"/>
		<circle class="st9" cx="970.5" cy="215.1" r="14.7"/>
	</g>
</g>
</svg>
